<mxfile host="app.diagrams.net" modified="2023-08-28T16:10:40.192Z" agent="Mozilla/5.0 (Windows NT 10.0; Win64; x64) AppleWebKit/537.36 (KHTML, like Gecko) Chrome/114.0.0.0 Safari/537.36" etag="ttqTPbs7bo6xrlhRdvF1" version="21.6.9" type="device">
  <diagram id="C5RBs43oDa-KdzZeNtuy" name="Page-1">
    <mxGraphModel dx="1521" dy="881" grid="1" gridSize="10" guides="1" tooltips="1" connect="1" arrows="1" fold="1" page="1" pageScale="1" pageWidth="827" pageHeight="1169" math="0" shadow="0">
      <root>
        <mxCell id="WIyWlLk6GJQsqaUBKTNV-0" />
        <mxCell id="WIyWlLk6GJQsqaUBKTNV-1" parent="WIyWlLk6GJQsqaUBKTNV-0" />
        <mxCell id="6s5vhWPi2oBte4bEisQO-0" value="Patients" style="swimlane;fontStyle=0;childLayout=stackLayout;horizontal=1;startSize=26;fillColor=none;horizontalStack=0;resizeParent=1;resizeParentMax=0;resizeLast=0;collapsible=1;marginBottom=0;whiteSpace=wrap;html=1;comic=0;jiggle=6;backgroundOutline=0;" parent="WIyWlLk6GJQsqaUBKTNV-1" vertex="1">
          <mxGeometry x="-284.5" y="1050" width="195" height="130" as="geometry" />
        </mxCell>
        <mxCell id="6s5vhWPi2oBte4bEisQO-121" value="insuranceMemberID: string" style="text;strokeColor=none;fillColor=none;align=left;verticalAlign=top;spacingLeft=4;spacingRight=4;overflow=hidden;rotatable=0;points=[[0,0.5],[1,0.5]];portConstraint=eastwest;whiteSpace=wrap;html=1;comic=0;jiggle=6;backgroundOutline=0;" parent="6s5vhWPi2oBte4bEisQO-0" vertex="1">
          <mxGeometry y="26" width="195" height="26" as="geometry" />
        </mxCell>
        <mxCell id="ZfSKOzxZ88lNqSnVztVK-0" value="insurancePlan: string" style="text;strokeColor=none;fillColor=none;align=left;verticalAlign=top;spacingLeft=4;spacingRight=4;overflow=hidden;rotatable=0;points=[[0,0.5],[1,0.5]];portConstraint=eastwest;whiteSpace=wrap;html=1;comic=0;jiggle=6;backgroundOutline=0;" parent="6s5vhWPi2oBte4bEisQO-0" vertex="1">
          <mxGeometry y="52" width="195" height="26" as="geometry" />
        </mxCell>
        <mxCell id="6s5vhWPi2oBte4bEisQO-18" value="deductibleProgress: string" style="text;strokeColor=none;fillColor=none;align=left;verticalAlign=top;spacingLeft=4;spacingRight=4;overflow=hidden;rotatable=0;points=[[0,0.5],[1,0.5]];portConstraint=eastwest;whiteSpace=wrap;html=1;comic=0;jiggle=6;backgroundOutline=0;" parent="6s5vhWPi2oBte4bEisQO-0" vertex="1">
          <mxGeometry y="78" width="195" height="26" as="geometry" />
        </mxCell>
        <mxCell id="6s5vhWPi2oBte4bEisQO-139" value="patientStatus: string " style="text;strokeColor=none;fillColor=none;align=left;verticalAlign=top;spacingLeft=4;spacingRight=4;overflow=hidden;rotatable=0;points=[[0,0.5],[1,0.5]];portConstraint=eastwest;whiteSpace=wrap;html=1;comic=0;jiggle=6;backgroundOutline=0;" parent="6s5vhWPi2oBte4bEisQO-0" vertex="1">
          <mxGeometry y="104" width="195" height="26" as="geometry" />
        </mxCell>
        <mxCell id="6s5vhWPi2oBte4bEisQO-4" value="Address" style="swimlane;fontStyle=0;childLayout=stackLayout;horizontal=1;startSize=26;fillColor=none;horizontalStack=0;resizeParent=1;resizeParentMax=0;resizeLast=0;collapsible=1;marginBottom=0;whiteSpace=wrap;html=1;strokeColor=#000000;comic=0;jiggle=6;backgroundOutline=0;" parent="WIyWlLk6GJQsqaUBKTNV-1" vertex="1">
          <mxGeometry x="120" y="1408" width="140" height="260" as="geometry" />
        </mxCell>
        <mxCell id="6s5vhWPi2oBte4bEisQO-5" value="addressID: string " style="text;strokeColor=none;fillColor=none;align=left;verticalAlign=top;spacingLeft=4;spacingRight=4;overflow=hidden;rotatable=0;points=[[0,0.5],[1,0.5]];portConstraint=eastwest;whiteSpace=wrap;html=1;comic=0;jiggle=6;backgroundOutline=0;" parent="6s5vhWPi2oBte4bEisQO-4" vertex="1">
          <mxGeometry y="26" width="140" height="26" as="geometry" />
        </mxCell>
        <mxCell id="XNJbn17Z0ETbCCURGHxT-27" value="&lt;font color=&quot;#3399ff&quot;&gt;label: string&lt;/font&gt;" style="text;strokeColor=none;fillColor=none;align=left;verticalAlign=top;spacingLeft=4;spacingRight=4;overflow=hidden;rotatable=0;points=[[0,0.5],[1,0.5]];portConstraint=eastwest;whiteSpace=wrap;html=1;comic=0;jiggle=6;backgroundOutline=0;" parent="6s5vhWPi2oBte4bEisQO-4" vertex="1">
          <mxGeometry y="52" width="140" height="26" as="geometry" />
        </mxCell>
        <mxCell id="_RMVuCj_aNO2bqz8egUr-25" value="&lt;font color=&quot;#3399ff&quot;&gt;phoneNumber: string&lt;/font&gt;" style="text;strokeColor=none;fillColor=none;align=left;verticalAlign=top;spacingLeft=4;spacingRight=4;overflow=hidden;rotatable=0;points=[[0,0.5],[1,0.5]];portConstraint=eastwest;whiteSpace=wrap;html=1;comic=0;jiggle=6;backgroundOutline=0;" parent="6s5vhWPi2oBte4bEisQO-4" vertex="1">
          <mxGeometry y="78" width="140" height="26" as="geometry" />
        </mxCell>
        <mxCell id="6s5vhWPi2oBte4bEisQO-6" value="line1: string" style="text;strokeColor=none;fillColor=none;align=left;verticalAlign=top;spacingLeft=4;spacingRight=4;overflow=hidden;rotatable=0;points=[[0,0.5],[1,0.5]];portConstraint=eastwest;whiteSpace=wrap;html=1;comic=0;jiggle=6;backgroundOutline=0;" parent="6s5vhWPi2oBte4bEisQO-4" vertex="1">
          <mxGeometry y="104" width="140" height="26" as="geometry" />
        </mxCell>
        <mxCell id="6s5vhWPi2oBte4bEisQO-7" value="line2: string" style="text;strokeColor=none;fillColor=none;align=left;verticalAlign=top;spacingLeft=4;spacingRight=4;overflow=hidden;rotatable=0;points=[[0,0.5],[1,0.5]];portConstraint=eastwest;whiteSpace=wrap;html=1;comic=0;jiggle=6;backgroundOutline=0;" parent="6s5vhWPi2oBte4bEisQO-4" vertex="1">
          <mxGeometry y="130" width="140" height="26" as="geometry" />
        </mxCell>
        <mxCell id="6s5vhWPi2oBte4bEisQO-8" value="city: string" style="text;strokeColor=none;fillColor=none;align=left;verticalAlign=top;spacingLeft=4;spacingRight=4;overflow=hidden;rotatable=0;points=[[0,0.5],[1,0.5]];portConstraint=eastwest;whiteSpace=wrap;html=1;comic=0;jiggle=6;backgroundOutline=0;" parent="6s5vhWPi2oBte4bEisQO-4" vertex="1">
          <mxGeometry y="156" width="140" height="26" as="geometry" />
        </mxCell>
        <mxCell id="6s5vhWPi2oBte4bEisQO-9" value="region: string" style="text;strokeColor=none;fillColor=none;align=left;verticalAlign=top;spacingLeft=4;spacingRight=4;overflow=hidden;rotatable=0;points=[[0,0.5],[1,0.5]];portConstraint=eastwest;whiteSpace=wrap;html=1;comic=0;jiggle=6;backgroundOutline=0;" parent="6s5vhWPi2oBte4bEisQO-4" vertex="1">
          <mxGeometry y="182" width="140" height="26" as="geometry" />
        </mxCell>
        <mxCell id="6s5vhWPi2oBte4bEisQO-10" value="postalCode: string" style="text;strokeColor=none;fillColor=none;align=left;verticalAlign=top;spacingLeft=4;spacingRight=4;overflow=hidden;rotatable=0;points=[[0,0.5],[1,0.5]];portConstraint=eastwest;whiteSpace=wrap;html=1;comic=0;jiggle=6;backgroundOutline=0;" parent="6s5vhWPi2oBte4bEisQO-4" vertex="1">
          <mxGeometry y="208" width="140" height="26" as="geometry" />
        </mxCell>
        <mxCell id="6s5vhWPi2oBte4bEisQO-11" value="country: string" style="text;strokeColor=none;fillColor=none;align=left;verticalAlign=top;spacingLeft=4;spacingRight=4;overflow=hidden;rotatable=0;points=[[0,0.5],[1,0.5]];portConstraint=eastwest;whiteSpace=wrap;html=1;comic=0;jiggle=6;backgroundOutline=0;" parent="6s5vhWPi2oBte4bEisQO-4" vertex="1">
          <mxGeometry y="234" width="140" height="26" as="geometry" />
        </mxCell>
        <mxCell id="6s5vhWPi2oBte4bEisQO-31" value="Procedure Supply Requirements" style="swimlane;fontStyle=0;childLayout=stackLayout;horizontal=1;startSize=26;fillColor=none;horizontalStack=0;resizeParent=1;resizeParentMax=0;resizeLast=0;collapsible=1;marginBottom=0;whiteSpace=wrap;html=1;comic=0;jiggle=6;backgroundOutline=0;" parent="WIyWlLk6GJQsqaUBKTNV-1" vertex="1">
          <mxGeometry x="760" y="1364" width="200" height="104" as="geometry" />
        </mxCell>
        <mxCell id="a_AbMnidcUv3Xf0sOISM-1" value="supplyCode: string" style="text;strokeColor=none;fillColor=none;align=left;verticalAlign=top;spacingLeft=4;spacingRight=4;overflow=hidden;rotatable=0;points=[[0,0.5],[1,0.5]];portConstraint=eastwest;whiteSpace=wrap;html=1;comic=0;jiggle=6;backgroundOutline=0;" parent="6s5vhWPi2oBte4bEisQO-31" vertex="1">
          <mxGeometry y="26" width="200" height="26" as="geometry" />
        </mxCell>
        <mxCell id="6s5vhWPi2oBte4bEisQO-37" value="quantityUnit: string" style="text;strokeColor=none;fillColor=none;align=left;verticalAlign=top;spacingLeft=4;spacingRight=4;overflow=hidden;rotatable=0;points=[[0,0.5],[1,0.5]];portConstraint=eastwest;whiteSpace=wrap;html=1;comic=0;jiggle=6;backgroundOutline=0;" parent="6s5vhWPi2oBte4bEisQO-31" vertex="1">
          <mxGeometry y="52" width="200" height="26" as="geometry" />
        </mxCell>
        <mxCell id="6s5vhWPi2oBte4bEisQO-38" value="unitPrice: float" style="text;strokeColor=none;fillColor=none;align=left;verticalAlign=top;spacingLeft=4;spacingRight=4;overflow=hidden;rotatable=0;points=[[0,0.5],[1,0.5]];portConstraint=eastwest;whiteSpace=wrap;html=1;comic=0;jiggle=6;backgroundOutline=0;" parent="6s5vhWPi2oBte4bEisQO-31" vertex="1">
          <mxGeometry y="78" width="200" height="26" as="geometry" />
        </mxCell>
        <mxCell id="_RMVuCj_aNO2bqz8egUr-63" style="edgeStyle=orthogonalEdgeStyle;rounded=0;orthogonalLoop=1;jettySize=auto;html=1;endArrow=block;endFill=1;fillColor=#dae8fc;strokeColor=#66B2FF;jumpStyle=arc;comic=0;jiggle=6;backgroundOutline=0;endSize=25;startSize=25;jumpSize=10;" parent="WIyWlLk6GJQsqaUBKTNV-1" source="6s5vhWPi2oBte4bEisQO-40" target="_RMVuCj_aNO2bqz8egUr-52" edge="1">
          <mxGeometry relative="1" as="geometry">
            <Array as="points">
              <mxPoint x="778" y="1550" />
              <mxPoint x="1020" y="1550" />
            </Array>
          </mxGeometry>
        </mxCell>
        <mxCell id="_RMVuCj_aNO2bqz8egUr-64" value="Inheritance" style="edgeLabel;html=1;align=center;verticalAlign=middle;resizable=0;points=[];comic=0;jiggle=6;backgroundOutline=0;" parent="_RMVuCj_aNO2bqz8egUr-63" vertex="1" connectable="0">
          <mxGeometry x="-0.0278" relative="1" as="geometry">
            <mxPoint x="61" y="-150" as="offset" />
          </mxGeometry>
        </mxCell>
        <mxCell id="6s5vhWPi2oBte4bEisQO-40" value="Procedure Role Requirements" style="swimlane;fontStyle=0;childLayout=stackLayout;horizontal=1;startSize=26;fillColor=none;horizontalStack=0;resizeParent=1;resizeParentMax=0;resizeLast=0;collapsible=1;marginBottom=0;whiteSpace=wrap;html=1;comic=0;jiggle=6;backgroundOutline=0;strokeColor=#000000;" parent="WIyWlLk6GJQsqaUBKTNV-1" vertex="1">
          <mxGeometry x="687.5" y="1580" width="180" height="130" as="geometry" />
        </mxCell>
        <mxCell id="_RMVuCj_aNO2bqz8egUr-55" value="description: string" style="text;strokeColor=none;fillColor=none;align=left;verticalAlign=top;spacingLeft=4;spacingRight=4;overflow=hidden;rotatable=0;points=[[0,0.5],[1,0.5]];portConstraint=eastwest;whiteSpace=wrap;html=1;comic=0;jiggle=6;backgroundOutline=0;" parent="6s5vhWPi2oBte4bEisQO-40" vertex="1">
          <mxGeometry y="26" width="180" height="26" as="geometry" />
        </mxCell>
        <mxCell id="a_AbMnidcUv3Xf0sOISM-0" value="roleCode: string" style="text;strokeColor=none;fillColor=none;align=left;verticalAlign=top;spacingLeft=4;spacingRight=4;overflow=hidden;rotatable=0;points=[[0,0.5],[1,0.5]];portConstraint=eastwest;whiteSpace=wrap;html=1;comic=0;jiggle=6;backgroundOutline=0;" parent="6s5vhWPi2oBte4bEisQO-40" vertex="1">
          <mxGeometry y="52" width="180" height="26" as="geometry" />
        </mxCell>
        <mxCell id="6s5vhWPi2oBte4bEisQO-52" value="isOptional: bool" style="text;strokeColor=none;fillColor=none;align=left;verticalAlign=top;spacingLeft=4;spacingRight=4;overflow=hidden;rotatable=0;points=[[0,0.5],[1,0.5]];portConstraint=eastwest;whiteSpace=wrap;html=1;comic=0;jiggle=6;backgroundOutline=0;" parent="6s5vhWPi2oBte4bEisQO-40" vertex="1">
          <mxGeometry y="78" width="180" height="26" as="geometry" />
        </mxCell>
        <mxCell id="6s5vhWPi2oBte4bEisQO-47" value="cost: float" style="text;strokeColor=none;fillColor=none;align=left;verticalAlign=top;spacingLeft=4;spacingRight=4;overflow=hidden;rotatable=0;points=[[0,0.5],[1,0.5]];portConstraint=eastwest;whiteSpace=wrap;html=1;comic=0;jiggle=6;backgroundOutline=0;" parent="6s5vhWPi2oBte4bEisQO-40" vertex="1">
          <mxGeometry y="104" width="180" height="26" as="geometry" />
        </mxCell>
        <mxCell id="6s5vhWPi2oBte4bEisQO-54" value="Roles" style="swimlane;fontStyle=0;childLayout=stackLayout;horizontal=1;startSize=26;fillColor=none;horizontalStack=0;resizeParent=1;resizeParentMax=0;resizeLast=0;collapsible=1;marginBottom=0;whiteSpace=wrap;html=1;comic=0;jiggle=6;backgroundOutline=0;strokeColor=#000000;" parent="WIyWlLk6GJQsqaUBKTNV-1" vertex="1">
          <mxGeometry x="366.25" y="1688" width="180" height="104" as="geometry" />
        </mxCell>
        <mxCell id="6s5vhWPi2oBte4bEisQO-55" value="roleID: string " style="text;strokeColor=none;fillColor=none;align=left;verticalAlign=top;spacingLeft=4;spacingRight=4;overflow=hidden;rotatable=0;points=[[0,0.5],[1,0.5]];portConstraint=eastwest;whiteSpace=wrap;html=1;comic=0;jiggle=6;backgroundOutline=0;" parent="6s5vhWPi2oBte4bEisQO-54" vertex="1">
          <mxGeometry y="26" width="180" height="26" as="geometry" />
        </mxCell>
        <mxCell id="6s5vhWPi2oBte4bEisQO-56" value="title: string" style="text;strokeColor=none;fillColor=none;align=left;verticalAlign=top;spacingLeft=4;spacingRight=4;overflow=hidden;rotatable=0;points=[[0,0.5],[1,0.5]];portConstraint=eastwest;whiteSpace=wrap;html=1;comic=0;jiggle=6;backgroundOutline=0;" parent="6s5vhWPi2oBte4bEisQO-54" vertex="1">
          <mxGeometry y="52" width="180" height="26" as="geometry" />
        </mxCell>
        <mxCell id="6s5vhWPi2oBte4bEisQO-57" value="isProvider: bool" style="text;strokeColor=none;fillColor=none;align=left;verticalAlign=top;spacingLeft=4;spacingRight=4;overflow=hidden;rotatable=0;points=[[0,0.5],[1,0.5]];portConstraint=eastwest;whiteSpace=wrap;html=1;comic=0;jiggle=6;backgroundOutline=0;" parent="6s5vhWPi2oBte4bEisQO-54" vertex="1">
          <mxGeometry y="78" width="180" height="26" as="geometry" />
        </mxCell>
        <mxCell id="6s5vhWPi2oBte4bEisQO-65" value="Appointment Timeline" style="swimlane;fontStyle=0;childLayout=stackLayout;horizontal=1;startSize=26;fillColor=none;horizontalStack=0;resizeParent=1;resizeParentMax=0;resizeLast=0;collapsible=1;marginBottom=0;whiteSpace=wrap;html=1;comic=0;jiggle=6;backgroundOutline=0;" parent="WIyWlLk6GJQsqaUBKTNV-1" vertex="1">
          <mxGeometry x="90" y="1070" width="180" height="312" as="geometry" />
        </mxCell>
        <mxCell id="6s5vhWPi2oBte4bEisQO-69" value="appointmentID: string " style="text;strokeColor=none;fillColor=none;align=left;verticalAlign=top;spacingLeft=4;spacingRight=4;overflow=hidden;rotatable=0;points=[[0,0.5],[1,0.5]];portConstraint=eastwest;whiteSpace=wrap;html=1;comic=0;jiggle=6;backgroundOutline=0;" parent="6s5vhWPi2oBte4bEisQO-65" vertex="1">
          <mxGeometry y="26" width="180" height="26" as="geometry" />
        </mxCell>
        <mxCell id="6s5vhWPi2oBte4bEisQO-66" value="appointmentDate: datetime" style="text;strokeColor=none;fillColor=none;align=left;verticalAlign=top;spacingLeft=4;spacingRight=4;overflow=hidden;rotatable=0;points=[[0,0.5],[1,0.5]];portConstraint=eastwest;whiteSpace=wrap;html=1;comic=0;jiggle=6;backgroundOutline=0;" parent="6s5vhWPi2oBte4bEisQO-65" vertex="1">
          <mxGeometry y="52" width="180" height="26" as="geometry" />
        </mxCell>
        <mxCell id="6s5vhWPi2oBte4bEisQO-67" value="startTime: string" style="text;strokeColor=none;fillColor=none;align=left;verticalAlign=top;spacingLeft=4;spacingRight=4;overflow=hidden;rotatable=0;points=[[0,0.5],[1,0.5]];portConstraint=eastwest;whiteSpace=wrap;html=1;comic=0;jiggle=6;backgroundOutline=0;" parent="6s5vhWPi2oBte4bEisQO-65" vertex="1">
          <mxGeometry y="78" width="180" height="26" as="geometry" />
        </mxCell>
        <mxCell id="6s5vhWPi2oBte4bEisQO-68" value="endTime: string" style="text;strokeColor=none;fillColor=none;align=left;verticalAlign=top;spacingLeft=4;spacingRight=4;overflow=hidden;rotatable=0;points=[[0,0.5],[1,0.5]];portConstraint=eastwest;whiteSpace=wrap;html=1;comic=0;jiggle=6;backgroundOutline=0;" parent="6s5vhWPi2oBte4bEisQO-65" vertex="1">
          <mxGeometry y="104" width="180" height="26" as="geometry" />
        </mxCell>
        <mxCell id="6s5vhWPi2oBte4bEisQO-71" value="patientID: string " style="text;strokeColor=none;fillColor=none;align=left;verticalAlign=top;spacingLeft=4;spacingRight=4;overflow=hidden;rotatable=0;points=[[0,0.5],[1,0.5]];portConstraint=eastwest;whiteSpace=wrap;html=1;comic=0;jiggle=6;backgroundOutline=0;" parent="6s5vhWPi2oBte4bEisQO-65" vertex="1">
          <mxGeometry y="130" width="180" height="26" as="geometry" />
        </mxCell>
        <mxCell id="6s5vhWPi2oBte4bEisQO-72" value="providerID: string " style="text;strokeColor=none;fillColor=none;align=left;verticalAlign=top;spacingLeft=4;spacingRight=4;overflow=hidden;rotatable=0;points=[[0,0.5],[1,0.5]];portConstraint=eastwest;whiteSpace=wrap;html=1;comic=0;jiggle=6;backgroundOutline=0;" parent="6s5vhWPi2oBte4bEisQO-65" vertex="1">
          <mxGeometry y="156" width="180" height="26" as="geometry" />
        </mxCell>
        <mxCell id="6s5vhWPi2oBte4bEisQO-74" value="roomID: string " style="text;strokeColor=none;fillColor=none;align=left;verticalAlign=top;spacingLeft=4;spacingRight=4;overflow=hidden;rotatable=0;points=[[0,0.5],[1,0.5]];portConstraint=eastwest;whiteSpace=wrap;html=1;comic=0;jiggle=6;backgroundOutline=0;" parent="6s5vhWPi2oBte4bEisQO-65" vertex="1">
          <mxGeometry y="182" width="180" height="26" as="geometry" />
        </mxCell>
        <mxCell id="6s5vhWPi2oBte4bEisQO-73" value="procedureCode: string" style="text;strokeColor=none;fillColor=none;align=left;verticalAlign=top;spacingLeft=4;spacingRight=4;overflow=hidden;rotatable=0;points=[[0,0.5],[1,0.5]];portConstraint=eastwest;whiteSpace=wrap;html=1;comic=0;jiggle=6;backgroundOutline=0;" parent="6s5vhWPi2oBte4bEisQO-65" vertex="1">
          <mxGeometry y="208" width="180" height="26" as="geometry" />
        </mxCell>
        <mxCell id="6s5vhWPi2oBte4bEisQO-75" value="fee: float" style="text;strokeColor=none;fillColor=none;align=left;verticalAlign=top;spacingLeft=4;spacingRight=4;overflow=hidden;rotatable=0;points=[[0,0.5],[1,0.5]];portConstraint=eastwest;whiteSpace=wrap;html=1;comic=0;jiggle=6;backgroundOutline=0;" parent="6s5vhWPi2oBte4bEisQO-65" vertex="1">
          <mxGeometry y="234" width="180" height="26" as="geometry" />
        </mxCell>
        <mxCell id="_RMVuCj_aNO2bqz8egUr-27" value="&lt;font color=&quot;#3399ff&quot;&gt;notes: string&lt;/font&gt;" style="text;strokeColor=none;fillColor=none;align=left;verticalAlign=top;spacingLeft=4;spacingRight=4;overflow=hidden;rotatable=0;points=[[0,0.5],[1,0.5]];portConstraint=eastwest;whiteSpace=wrap;html=1;comic=0;jiggle=6;backgroundOutline=0;" parent="6s5vhWPi2oBte4bEisQO-65" vertex="1">
          <mxGeometry y="260" width="180" height="26" as="geometry" />
        </mxCell>
        <mxCell id="_RMVuCj_aNO2bqz8egUr-28" value="&lt;font color=&quot;#3399ff&quot;&gt;zippedAttachments: binary&lt;/font&gt;" style="text;strokeColor=none;fillColor=none;align=left;verticalAlign=top;spacingLeft=4;spacingRight=4;overflow=hidden;rotatable=0;points=[[0,0.5],[1,0.5]];portConstraint=eastwest;whiteSpace=wrap;html=1;comic=0;jiggle=6;backgroundOutline=0;" parent="6s5vhWPi2oBte4bEisQO-65" vertex="1">
          <mxGeometry y="286" width="180" height="26" as="geometry" />
        </mxCell>
        <mxCell id="6s5vhWPi2oBte4bEisQO-76" style="rounded=0;orthogonalLoop=1;jettySize=auto;html=1;edgeStyle=orthogonalEdgeStyle;jumpStyle=arc;comic=0;jiggle=6;backgroundOutline=0;endSize=25;startSize=25;jumpSize=10;endArrow=diamondThin;endFill=1;startArrow=none;startFill=0;" parent="WIyWlLk6GJQsqaUBKTNV-1" source="6s5vhWPi2oBte4bEisQO-65" target="6s5vhWPi2oBte4bEisQO-0" edge="1">
          <mxGeometry relative="1" as="geometry">
            <mxPoint x="216" y="1580.0000000000005" as="targetPoint" />
            <Array as="points">
              <mxPoint x="10" y="1160" />
              <mxPoint x="10" y="1160" />
            </Array>
          </mxGeometry>
        </mxCell>
        <mxCell id="6s5vhWPi2oBte4bEisQO-77" value="Staff" style="swimlane;fontStyle=0;childLayout=stackLayout;horizontal=1;startSize=26;fillColor=none;horizontalStack=0;resizeParent=1;resizeParentMax=0;resizeLast=0;collapsible=1;marginBottom=0;whiteSpace=wrap;html=1;comic=0;jiggle=6;backgroundOutline=0;" parent="WIyWlLk6GJQsqaUBKTNV-1" vertex="1">
          <mxGeometry x="12.5" y="1688" width="190" height="286" as="geometry" />
        </mxCell>
        <mxCell id="6s5vhWPi2oBte4bEisQO-79" value="role: string " style="text;strokeColor=none;fillColor=none;align=left;verticalAlign=top;spacingLeft=4;spacingRight=4;overflow=hidden;rotatable=0;points=[[0,0.5],[1,0.5]];portConstraint=eastwest;whiteSpace=wrap;html=1;comic=0;jiggle=6;backgroundOutline=0;" parent="6s5vhWPi2oBte4bEisQO-77" vertex="1">
          <mxGeometry y="26" width="190" height="26" as="geometry" />
        </mxCell>
        <mxCell id="6s5vhWPi2oBte4bEisQO-81" value="department: string " style="text;strokeColor=none;fillColor=none;align=left;verticalAlign=top;spacingLeft=4;spacingRight=4;overflow=hidden;rotatable=0;points=[[0,0.5],[1,0.5]];portConstraint=eastwest;whiteSpace=wrap;html=1;comic=0;jiggle=6;backgroundOutline=0;" parent="6s5vhWPi2oBte4bEisQO-77" vertex="1">
          <mxGeometry y="52" width="190" height="26" as="geometry" />
        </mxCell>
        <mxCell id="XNJbn17Z0ETbCCURGHxT-20" value="&lt;font color=&quot;#3399ff&quot;&gt;salary: string&lt;/font&gt;" style="text;strokeColor=none;fillColor=none;align=left;verticalAlign=top;spacingLeft=4;spacingRight=4;overflow=hidden;rotatable=0;points=[[0,0.5],[1,0.5]];portConstraint=eastwest;whiteSpace=wrap;html=1;comic=0;jiggle=6;backgroundOutline=0;" parent="6s5vhWPi2oBte4bEisQO-77" vertex="1">
          <mxGeometry y="78" width="190" height="26" as="geometry" />
        </mxCell>
        <mxCell id="XNJbn17Z0ETbCCURGHxT-19" value="&lt;font color=&quot;#3399ff&quot;&gt;payType: string&lt;/font&gt;" style="text;strokeColor=none;fillColor=none;align=left;verticalAlign=top;spacingLeft=4;spacingRight=4;overflow=hidden;rotatable=0;points=[[0,0.5],[1,0.5]];portConstraint=eastwest;whiteSpace=wrap;html=1;comic=0;jiggle=6;backgroundOutline=0;" parent="6s5vhWPi2oBte4bEisQO-77" vertex="1">
          <mxGeometry y="104" width="190" height="26" as="geometry" />
        </mxCell>
        <mxCell id="OsplQfHJkV01C1cwUfgm-0" value="&lt;font color=&quot;#3399ff&quot;&gt;taxFilingStatus: float&lt;/font&gt;" style="text;strokeColor=none;fillColor=none;align=left;verticalAlign=top;spacingLeft=4;spacingRight=4;overflow=hidden;rotatable=0;points=[[0,0.5],[1,0.5]];portConstraint=eastwest;whiteSpace=wrap;html=1;" parent="6s5vhWPi2oBte4bEisQO-77" vertex="1">
          <mxGeometry y="130" width="190" height="26" as="geometry" />
        </mxCell>
        <mxCell id="OsplQfHJkV01C1cwUfgm-5" value="&lt;font color=&quot;#3399ff&quot;&gt;otherTaxWithholding: float&lt;/font&gt;" style="text;strokeColor=none;fillColor=none;align=left;verticalAlign=top;spacingLeft=4;spacingRight=4;overflow=hidden;rotatable=0;points=[[0,0.5],[1,0.5]];portConstraint=eastwest;whiteSpace=wrap;html=1;" parent="6s5vhWPi2oBte4bEisQO-77" vertex="1">
          <mxGeometry y="156" width="190" height="26" as="geometry" />
        </mxCell>
        <mxCell id="OsplQfHJkV01C1cwUfgm-4" value="&lt;font color=&quot;#3399ff&quot;&gt;taxDeductions: float&lt;/font&gt;" style="text;strokeColor=none;fillColor=none;align=left;verticalAlign=top;spacingLeft=4;spacingRight=4;overflow=hidden;rotatable=0;points=[[0,0.5],[1,0.5]];portConstraint=eastwest;whiteSpace=wrap;html=1;" parent="6s5vhWPi2oBte4bEisQO-77" vertex="1">
          <mxGeometry y="182" width="190" height="26" as="geometry" />
        </mxCell>
        <mxCell id="OsplQfHJkV01C1cwUfgm-3" value="&lt;font color=&quot;#3399ff&quot;&gt;dependentTaxAdjustment: float&lt;/font&gt;" style="text;strokeColor=none;fillColor=none;align=left;verticalAlign=top;spacingLeft=4;spacingRight=4;overflow=hidden;rotatable=0;points=[[0,0.5],[1,0.5]];portConstraint=eastwest;whiteSpace=wrap;html=1;" parent="6s5vhWPi2oBte4bEisQO-77" vertex="1">
          <mxGeometry y="208" width="190" height="26" as="geometry" />
        </mxCell>
        <mxCell id="OsplQfHJkV01C1cwUfgm-2" value="&lt;font color=&quot;#3399ff&quot;&gt;otherJobIncome: float&lt;/font&gt;" style="text;strokeColor=none;fillColor=none;align=left;verticalAlign=top;spacingLeft=4;spacingRight=4;overflow=hidden;rotatable=0;points=[[0,0.5],[1,0.5]];portConstraint=eastwest;whiteSpace=wrap;html=1;" parent="6s5vhWPi2oBte4bEisQO-77" vertex="1">
          <mxGeometry y="234" width="190" height="26" as="geometry" />
        </mxCell>
        <mxCell id="OsplQfHJkV01C1cwUfgm-1" value="&lt;font color=&quot;#3399ff&quot;&gt;hasOtherJob: bool&lt;/font&gt;" style="text;strokeColor=none;fillColor=none;align=left;verticalAlign=top;spacingLeft=4;spacingRight=4;overflow=hidden;rotatable=0;points=[[0,0.5],[1,0.5]];portConstraint=eastwest;whiteSpace=wrap;html=1;" parent="6s5vhWPi2oBte4bEisQO-77" vertex="1">
          <mxGeometry y="260" width="190" height="26" as="geometry" />
        </mxCell>
        <mxCell id="6s5vhWPi2oBte4bEisQO-82" value="Department" style="swimlane;fontStyle=0;childLayout=stackLayout;horizontal=1;startSize=26;fillColor=none;horizontalStack=0;resizeParent=1;resizeParentMax=0;resizeLast=0;collapsible=1;marginBottom=0;whiteSpace=wrap;html=1;comic=0;jiggle=6;backgroundOutline=0;" parent="WIyWlLk6GJQsqaUBKTNV-1" vertex="1">
          <mxGeometry x="414" y="1520" width="207.5" height="78" as="geometry" />
        </mxCell>
        <mxCell id="6s5vhWPi2oBte4bEisQO-83" value="deptID: string" style="text;strokeColor=none;fillColor=none;align=left;verticalAlign=top;spacingLeft=4;spacingRight=4;overflow=hidden;rotatable=0;points=[[0,0.5],[1,0.5]];portConstraint=eastwest;whiteSpace=wrap;html=1;comic=0;jiggle=6;backgroundOutline=0;" parent="6s5vhWPi2oBte4bEisQO-82" vertex="1">
          <mxGeometry y="26" width="207.5" height="26" as="geometry" />
        </mxCell>
        <mxCell id="6s5vhWPi2oBte4bEisQO-84" value="deptName: string" style="text;strokeColor=none;fillColor=none;align=left;verticalAlign=top;spacingLeft=4;spacingRight=4;overflow=hidden;rotatable=0;points=[[0,0.5],[1,0.5]];portConstraint=eastwest;whiteSpace=wrap;html=1;comic=0;jiggle=6;backgroundOutline=0;" parent="6s5vhWPi2oBte4bEisQO-82" vertex="1">
          <mxGeometry y="52" width="207.5" height="26" as="geometry" />
        </mxCell>
        <mxCell id="6s5vhWPi2oBte4bEisQO-87" style="rounded=0;orthogonalLoop=1;jettySize=auto;html=1;edgeStyle=orthogonalEdgeStyle;jumpStyle=arc;comic=0;jiggle=6;backgroundOutline=0;endSize=25;startSize=25;jumpSize=10;endArrow=diamondThin;endFill=0;" parent="WIyWlLk6GJQsqaUBKTNV-1" source="6s5vhWPi2oBte4bEisQO-77" target="6s5vhWPi2oBte4bEisQO-82" edge="1">
          <mxGeometry relative="1" as="geometry">
            <Array as="points">
              <mxPoint x="310" y="1710" />
              <mxPoint x="310" y="1660" />
              <mxPoint x="518" y="1660" />
            </Array>
          </mxGeometry>
        </mxCell>
        <mxCell id="6s5vhWPi2oBte4bEisQO-89" style="rounded=0;orthogonalLoop=1;jettySize=auto;html=1;edgeStyle=orthogonalEdgeStyle;jumpStyle=arc;comic=0;jiggle=6;backgroundOutline=0;endSize=25;startSize=25;jumpSize=10;endArrow=diamondThin;endFill=1;" parent="WIyWlLk6GJQsqaUBKTNV-1" source="6s5vhWPi2oBte4bEisQO-88" target="6s5vhWPi2oBte4bEisQO-83" edge="1">
          <mxGeometry relative="1" as="geometry">
            <Array as="points">
              <mxPoint x="680" y="1559" />
            </Array>
          </mxGeometry>
        </mxCell>
        <mxCell id="6s5vhWPi2oBte4bEisQO-90" style="rounded=0;orthogonalLoop=1;jettySize=auto;html=1;edgeStyle=orthogonalEdgeStyle;jumpStyle=arc;comic=0;jiggle=6;backgroundOutline=0;endSize=25;startSize=25;jumpSize=10;endArrow=diamondThin;endFill=1;startArrow=none;startFill=0;" parent="WIyWlLk6GJQsqaUBKTNV-1" source="6s5vhWPi2oBte4bEisQO-65" target="6s5vhWPi2oBte4bEisQO-77" edge="1">
          <mxGeometry relative="1" as="geometry">
            <Array as="points">
              <mxPoint x="100" y="1510" />
              <mxPoint x="100" y="1510" />
            </Array>
            <mxPoint x="425" y="1697" as="targetPoint" />
          </mxGeometry>
        </mxCell>
        <mxCell id="6s5vhWPi2oBte4bEisQO-91" value="Room" style="swimlane;fontStyle=0;childLayout=stackLayout;horizontal=1;startSize=26;fillColor=none;horizontalStack=0;resizeParent=1;resizeParentMax=0;resizeLast=0;collapsible=1;marginBottom=0;whiteSpace=wrap;html=1;comic=0;jiggle=6;backgroundOutline=0;" parent="WIyWlLk6GJQsqaUBKTNV-1" vertex="1">
          <mxGeometry x="412.5" y="1330" width="240" height="130" as="geometry" />
        </mxCell>
        <mxCell id="6s5vhWPi2oBte4bEisQO-92" value="roomID: string " style="text;strokeColor=none;fillColor=none;align=left;verticalAlign=top;spacingLeft=4;spacingRight=4;overflow=hidden;rotatable=0;points=[[0,0.5],[1,0.5]];portConstraint=eastwest;whiteSpace=wrap;html=1;comic=0;jiggle=6;backgroundOutline=0;" parent="6s5vhWPi2oBte4bEisQO-91" vertex="1">
          <mxGeometry y="26" width="240" height="26" as="geometry" />
        </mxCell>
        <mxCell id="6s5vhWPi2oBte4bEisQO-93" value="roomName: string" style="text;strokeColor=none;fillColor=none;align=left;verticalAlign=top;spacingLeft=4;spacingRight=4;overflow=hidden;rotatable=0;points=[[0,0.5],[1,0.5]];portConstraint=eastwest;whiteSpace=wrap;html=1;comic=0;jiggle=6;backgroundOutline=0;" parent="6s5vhWPi2oBte4bEisQO-91" vertex="1">
          <mxGeometry y="52" width="240" height="26" as="geometry" />
        </mxCell>
        <mxCell id="6s5vhWPi2oBte4bEisQO-94" value="roomStatus: string " style="text;strokeColor=none;fillColor=none;align=left;verticalAlign=top;spacingLeft=4;spacingRight=4;overflow=hidden;rotatable=0;points=[[0,0.5],[1,0.5]];portConstraint=eastwest;whiteSpace=wrap;html=1;comic=0;jiggle=6;backgroundOutline=0;" parent="6s5vhWPi2oBte4bEisQO-91" vertex="1">
          <mxGeometry y="78" width="240" height="26" as="geometry" />
        </mxCell>
        <mxCell id="6s5vhWPi2oBte4bEisQO-100" value="department: string " style="text;strokeColor=none;fillColor=none;align=left;verticalAlign=top;spacingLeft=4;spacingRight=4;overflow=hidden;rotatable=0;points=[[0,0.5],[1,0.5]];portConstraint=eastwest;whiteSpace=wrap;html=1;comic=0;jiggle=6;backgroundOutline=0;" parent="6s5vhWPi2oBte4bEisQO-91" vertex="1">
          <mxGeometry y="104" width="240" height="26" as="geometry" />
        </mxCell>
        <mxCell id="6s5vhWPi2oBte4bEisQO-99" style="rounded=0;orthogonalLoop=1;jettySize=auto;html=1;edgeStyle=orthogonalEdgeStyle;jumpStyle=arc;comic=0;jiggle=6;backgroundOutline=0;endArrow=none;endFill=0;endSize=25;startSize=25;jumpSize=10;strokeColor=#000000;" parent="WIyWlLk6GJQsqaUBKTNV-1" source="6s5vhWPi2oBte4bEisQO-91" target="cIcH_N4xVWaxeV6_vvsU-0" edge="1">
          <mxGeometry relative="1" as="geometry">
            <mxPoint x="790" y="1375" as="targetPoint" />
            <Array as="points">
              <mxPoint x="-10" y="1395" />
              <mxPoint x="-10" y="1707" />
            </Array>
          </mxGeometry>
        </mxCell>
        <mxCell id="6s5vhWPi2oBte4bEisQO-101" style="rounded=0;orthogonalLoop=1;jettySize=auto;html=1;edgeStyle=orthogonalEdgeStyle;jumpStyle=arc;comic=0;jiggle=6;backgroundOutline=0;endSize=25;startSize=25;jumpSize=10;endArrow=diamondThin;endFill=0;" parent="WIyWlLk6GJQsqaUBKTNV-1" source="6s5vhWPi2oBte4bEisQO-91" target="6s5vhWPi2oBte4bEisQO-82" edge="1">
          <mxGeometry relative="1" as="geometry">
            <mxPoint x="530" y="746" as="sourcePoint" />
            <mxPoint x="290" y="1048" as="targetPoint" />
            <Array as="points">
              <mxPoint x="584" y="1500" />
              <mxPoint x="584" y="1500" />
            </Array>
          </mxGeometry>
        </mxCell>
        <mxCell id="6s5vhWPi2oBte4bEisQO-102" style="rounded=0;orthogonalLoop=1;jettySize=auto;html=1;edgeStyle=orthogonalEdgeStyle;jumpStyle=arc;comic=0;jiggle=6;backgroundOutline=0;endSize=25;startSize=25;jumpSize=10;startArrow=none;startFill=0;endArrow=diamondThin;endFill=1;" parent="WIyWlLk6GJQsqaUBKTNV-1" source="6s5vhWPi2oBte4bEisQO-65" target="6s5vhWPi2oBte4bEisQO-91" edge="1">
          <mxGeometry relative="1" as="geometry">
            <Array as="points">
              <mxPoint x="340" y="1350" />
              <mxPoint x="340" y="1350" />
            </Array>
          </mxGeometry>
        </mxCell>
        <mxCell id="6s5vhWPi2oBte4bEisQO-108" value="Insurance Agency" style="swimlane;fontStyle=0;childLayout=stackLayout;horizontal=1;startSize=26;fillColor=none;horizontalStack=0;resizeParent=1;resizeParentMax=0;resizeLast=0;collapsible=1;marginBottom=0;whiteSpace=wrap;html=1;comic=0;jiggle=6;backgroundOutline=0;" parent="WIyWlLk6GJQsqaUBKTNV-1" vertex="1">
          <mxGeometry x="-330" y="880" width="140" height="78" as="geometry" />
        </mxCell>
        <mxCell id="6s5vhWPi2oBte4bEisQO-109" value="agencyID: string " style="text;strokeColor=none;fillColor=none;align=left;verticalAlign=top;spacingLeft=4;spacingRight=4;overflow=hidden;rotatable=0;points=[[0,0.5],[1,0.5]];portConstraint=eastwest;whiteSpace=wrap;html=1;comic=0;jiggle=6;backgroundOutline=0;" parent="6s5vhWPi2oBte4bEisQO-108" vertex="1">
          <mxGeometry y="26" width="140" height="26" as="geometry" />
        </mxCell>
        <mxCell id="6s5vhWPi2oBte4bEisQO-110" value="agencyName: string" style="text;strokeColor=none;fillColor=none;align=left;verticalAlign=top;spacingLeft=4;spacingRight=4;overflow=hidden;rotatable=0;points=[[0,0.5],[1,0.5]];portConstraint=eastwest;whiteSpace=wrap;html=1;comic=0;jiggle=6;backgroundOutline=0;" parent="6s5vhWPi2oBte4bEisQO-108" vertex="1">
          <mxGeometry y="52" width="140" height="26" as="geometry" />
        </mxCell>
        <mxCell id="6s5vhWPi2oBte4bEisQO-113" value="Insurance Plan" style="swimlane;fontStyle=0;childLayout=stackLayout;horizontal=1;startSize=26;fillColor=none;horizontalStack=0;resizeParent=1;resizeParentMax=0;resizeLast=0;collapsible=1;marginBottom=0;whiteSpace=wrap;html=1;comic=0;jiggle=6;backgroundOutline=0;" parent="WIyWlLk6GJQsqaUBKTNV-1" vertex="1">
          <mxGeometry x="-590" y="880" width="200" height="180" as="geometry" />
        </mxCell>
        <mxCell id="6s5vhWPi2oBte4bEisQO-114" value="planID: string " style="text;strokeColor=none;fillColor=none;align=left;verticalAlign=top;spacingLeft=4;spacingRight=4;overflow=hidden;rotatable=0;points=[[0,0.5],[1,0.5]];portConstraint=eastwest;whiteSpace=wrap;html=1;comic=0;jiggle=6;backgroundOutline=0;" parent="6s5vhWPi2oBte4bEisQO-113" vertex="1">
          <mxGeometry y="26" width="200" height="24" as="geometry" />
        </mxCell>
        <mxCell id="6s5vhWPi2oBte4bEisQO-115" value="title: string" style="text;strokeColor=none;fillColor=none;align=left;verticalAlign=top;spacingLeft=4;spacingRight=4;overflow=hidden;rotatable=0;points=[[0,0.5],[1,0.5]];portConstraint=eastwest;whiteSpace=wrap;html=1;comic=0;jiggle=6;backgroundOutline=0;" parent="6s5vhWPi2oBte4bEisQO-113" vertex="1">
          <mxGeometry y="50" width="200" height="26" as="geometry" />
        </mxCell>
        <mxCell id="6s5vhWPi2oBte4bEisQO-116" value="planDescription: string" style="text;strokeColor=none;fillColor=none;align=left;verticalAlign=top;spacingLeft=4;spacingRight=4;overflow=hidden;rotatable=0;points=[[0,0.5],[1,0.5]];portConstraint=eastwest;whiteSpace=wrap;html=1;comic=0;jiggle=6;backgroundOutline=0;" parent="6s5vhWPi2oBte4bEisQO-113" vertex="1">
          <mxGeometry y="76" width="200" height="26" as="geometry" />
        </mxCell>
        <mxCell id="6s5vhWPi2oBte4bEisQO-118" value="deductible: float" style="text;strokeColor=none;fillColor=none;align=left;verticalAlign=top;spacingLeft=4;spacingRight=4;overflow=hidden;rotatable=0;points=[[0,0.5],[1,0.5]];portConstraint=eastwest;whiteSpace=wrap;html=1;comic=0;jiggle=6;backgroundOutline=0;" parent="6s5vhWPi2oBte4bEisQO-113" vertex="1">
          <mxGeometry y="102" width="200" height="26" as="geometry" />
        </mxCell>
        <mxCell id="6s5vhWPi2oBte4bEisQO-117" value="postDeductibleSplit: float" style="text;strokeColor=none;fillColor=none;align=left;verticalAlign=top;spacingLeft=4;spacingRight=4;overflow=hidden;rotatable=0;points=[[0,0.5],[1,0.5]];portConstraint=eastwest;whiteSpace=wrap;html=1;comic=0;jiggle=6;backgroundOutline=0;" parent="6s5vhWPi2oBte4bEisQO-113" vertex="1">
          <mxGeometry y="128" width="200" height="26" as="geometry" />
        </mxCell>
        <mxCell id="6s5vhWPi2oBte4bEisQO-119" value="insuranceAgency: string " style="text;strokeColor=none;fillColor=none;align=left;verticalAlign=top;spacingLeft=4;spacingRight=4;overflow=hidden;rotatable=0;points=[[0,0.5],[1,0.5]];portConstraint=eastwest;whiteSpace=wrap;html=1;comic=0;jiggle=6;backgroundOutline=0;" parent="6s5vhWPi2oBte4bEisQO-113" vertex="1">
          <mxGeometry y="154" width="200" height="26" as="geometry" />
        </mxCell>
        <mxCell id="6s5vhWPi2oBte4bEisQO-120" style="rounded=0;orthogonalLoop=1;jettySize=auto;html=1;edgeStyle=orthogonalEdgeStyle;jumpStyle=arc;comic=0;jiggle=6;backgroundOutline=0;endSize=25;startSize=25;jumpSize=10;endArrow=none;endFill=0;startArrow=diamondThin;startFill=0;" parent="WIyWlLk6GJQsqaUBKTNV-1" source="6s5vhWPi2oBte4bEisQO-113" target="6s5vhWPi2oBte4bEisQO-109" edge="1">
          <mxGeometry relative="1" as="geometry" />
        </mxCell>
        <mxCell id="6s5vhWPi2oBte4bEisQO-129" style="rounded=0;orthogonalLoop=1;jettySize=auto;html=1;edgeStyle=orthogonalEdgeStyle;jumpStyle=arc;comic=0;jiggle=6;backgroundOutline=0;endSize=25;startSize=25;jumpSize=10;endArrow=diamondThin;endFill=0;startArrow=none;startFill=0;" parent="WIyWlLk6GJQsqaUBKTNV-1" source="6s5vhWPi2oBte4bEisQO-0" target="6s5vhWPi2oBte4bEisQO-113" edge="1">
          <mxGeometry relative="1" as="geometry">
            <Array as="points">
              <mxPoint x="-410" y="1005" />
              <mxPoint x="-410" y="1005" />
            </Array>
            <mxPoint x="-50" y="1774" as="sourcePoint" />
          </mxGeometry>
        </mxCell>
        <mxCell id="6s5vhWPi2oBte4bEisQO-133" style="rounded=0;orthogonalLoop=1;jettySize=auto;html=1;edgeStyle=orthogonalEdgeStyle;jumpStyle=arc;comic=0;jiggle=6;backgroundOutline=0;endSize=25;startSize=25;jumpSize=10;endArrow=diamondThin;endFill=1;startArrow=none;startFill=0;" parent="WIyWlLk6GJQsqaUBKTNV-1" source="6s5vhWPi2oBte4bEisQO-65" target="6s5vhWPi2oBte4bEisQO-19" edge="1">
          <mxGeometry relative="1" as="geometry">
            <Array as="points" />
          </mxGeometry>
        </mxCell>
        <mxCell id="6s5vhWPi2oBte4bEisQO-144" style="rounded=0;orthogonalLoop=1;jettySize=auto;html=1;edgeStyle=orthogonalEdgeStyle;jumpStyle=arc;comic=0;jiggle=6;backgroundOutline=0;endSize=25;startSize=25;jumpSize=10;endArrow=none;endFill=0;startArrow=diamondThin;startFill=1;" parent="WIyWlLk6GJQsqaUBKTNV-1" source="6s5vhWPi2oBte4bEisQO-31" target="6s5vhWPi2oBte4bEisQO-19" edge="1">
          <mxGeometry relative="1" as="geometry">
            <Array as="points">
              <mxPoint x="860" y="1226" />
            </Array>
          </mxGeometry>
        </mxCell>
        <mxCell id="6s5vhWPi2oBte4bEisQO-146" style="rounded=0;orthogonalLoop=1;jettySize=auto;html=1;edgeStyle=orthogonalEdgeStyle;jumpStyle=arc;comic=0;jiggle=6;backgroundOutline=0;endSize=25;startSize=25;jumpSize=10;endArrow=none;endFill=0;startArrow=diamondThin;startFill=1;" parent="WIyWlLk6GJQsqaUBKTNV-1" source="6s5vhWPi2oBte4bEisQO-40" target="6s5vhWPi2oBte4bEisQO-19" edge="1">
          <mxGeometry relative="1" as="geometry">
            <Array as="points">
              <mxPoint x="730" y="1250" />
            </Array>
          </mxGeometry>
        </mxCell>
        <mxCell id="6s5vhWPi2oBte4bEisQO-147" value="Transaction" style="swimlane;fontStyle=0;childLayout=stackLayout;horizontal=1;startSize=26;fillColor=none;horizontalStack=0;resizeParent=1;resizeParentMax=0;resizeLast=0;collapsible=1;marginBottom=0;whiteSpace=wrap;html=1;comic=0;jiggle=6;backgroundOutline=0;" parent="WIyWlLk6GJQsqaUBKTNV-1" vertex="1">
          <mxGeometry x="-600" y="1244" width="240" height="312" as="geometry" />
        </mxCell>
        <mxCell id="6s5vhWPi2oBte4bEisQO-148" value="transactionID: string " style="text;strokeColor=none;fillColor=none;align=left;verticalAlign=top;spacingLeft=4;spacingRight=4;overflow=hidden;rotatable=0;points=[[0,0.5],[1,0.5]];portConstraint=eastwest;whiteSpace=wrap;html=1;comic=0;jiggle=6;backgroundOutline=0;" parent="6s5vhWPi2oBte4bEisQO-147" vertex="1">
          <mxGeometry y="26" width="240" height="26" as="geometry" />
        </mxCell>
        <mxCell id="cH1I5Z5Tquukox3wi0oo-0" value="transactionDate: date" style="text;strokeColor=none;fillColor=none;align=left;verticalAlign=top;spacingLeft=4;spacingRight=4;overflow=hidden;rotatable=0;points=[[0,0.5],[1,0.5]];portConstraint=eastwest;whiteSpace=wrap;html=1;comic=0;jiggle=6;backgroundOutline=0;" parent="6s5vhWPi2oBte4bEisQO-147" vertex="1">
          <mxGeometry y="52" width="240" height="26" as="geometry" />
        </mxCell>
        <mxCell id="6s5vhWPi2oBte4bEisQO-149" value="patientInsurancePlanID: string " style="text;strokeColor=none;fillColor=none;align=left;verticalAlign=top;spacingLeft=4;spacingRight=4;overflow=hidden;rotatable=0;points=[[0,0.5],[1,0.5]];portConstraint=eastwest;whiteSpace=wrap;html=1;comic=0;jiggle=6;backgroundOutline=0;" parent="6s5vhWPi2oBte4bEisQO-147" vertex="1">
          <mxGeometry y="78" width="240" height="26" as="geometry" />
        </mxCell>
        <mxCell id="cIcH_N4xVWaxeV6_vvsU-5" value="isSourceInsurance: string " style="text;strokeColor=none;fillColor=none;align=left;verticalAlign=top;spacingLeft=4;spacingRight=4;overflow=hidden;rotatable=0;points=[[0,0.5],[1,0.5]];portConstraint=eastwest;whiteSpace=wrap;html=1;comic=0;jiggle=6;backgroundOutline=0;" parent="6s5vhWPi2oBte4bEisQO-147" vertex="1">
          <mxGeometry y="104" width="240" height="26" as="geometry" />
        </mxCell>
        <mxCell id="6s5vhWPi2oBte4bEisQO-150" value="appointmentID: string " style="text;strokeColor=none;fillColor=none;align=left;verticalAlign=top;spacingLeft=4;spacingRight=4;overflow=hidden;rotatable=0;points=[[0,0.5],[1,0.5]];portConstraint=eastwest;whiteSpace=wrap;html=1;comic=0;jiggle=6;backgroundOutline=0;" parent="6s5vhWPi2oBte4bEisQO-147" vertex="1">
          <mxGeometry y="130" width="240" height="26" as="geometry" />
        </mxCell>
        <mxCell id="6s5vhWPi2oBte4bEisQO-154" value="paymentPlanID: string " style="text;strokeColor=none;fillColor=none;align=left;verticalAlign=top;spacingLeft=4;spacingRight=4;overflow=hidden;rotatable=0;points=[[0,0.5],[1,0.5]];portConstraint=eastwest;whiteSpace=wrap;html=1;comic=0;jiggle=6;backgroundOutline=0;" parent="6s5vhWPi2oBte4bEisQO-147" vertex="1">
          <mxGeometry y="156" width="240" height="26" as="geometry" />
        </mxCell>
        <mxCell id="6s5vhWPi2oBte4bEisQO-151" value="patientID: string " style="text;strokeColor=none;fillColor=none;align=left;verticalAlign=top;spacingLeft=4;spacingRight=4;overflow=hidden;rotatable=0;points=[[0,0.5],[1,0.5]];portConstraint=eastwest;whiteSpace=wrap;html=1;comic=0;jiggle=6;backgroundOutline=0;" parent="6s5vhWPi2oBte4bEisQO-147" vertex="1">
          <mxGeometry y="182" width="240" height="26" as="geometry" />
        </mxCell>
        <mxCell id="6s5vhWPi2oBte4bEisQO-152" value="total: float" style="text;strokeColor=none;fillColor=none;align=left;verticalAlign=top;spacingLeft=4;spacingRight=4;overflow=hidden;rotatable=0;points=[[0,0.5],[1,0.5]];portConstraint=eastwest;whiteSpace=wrap;html=1;comic=0;jiggle=6;backgroundOutline=0;" parent="6s5vhWPi2oBte4bEisQO-147" vertex="1">
          <mxGeometry y="208" width="240" height="26" as="geometry" />
        </mxCell>
        <mxCell id="6s5vhWPi2oBte4bEisQO-153" value="remainingBalance: float" style="text;strokeColor=none;fillColor=none;align=left;verticalAlign=top;spacingLeft=4;spacingRight=4;overflow=hidden;rotatable=0;points=[[0,0.5],[1,0.5]];portConstraint=eastwest;whiteSpace=wrap;html=1;comic=0;jiggle=6;backgroundOutline=0;" parent="6s5vhWPi2oBte4bEisQO-147" vertex="1">
          <mxGeometry y="234" width="240" height="26" as="geometry" />
        </mxCell>
        <mxCell id="6s5vhWPi2oBte4bEisQO-159" value="transactionStatus: enum " style="text;strokeColor=none;fillColor=none;align=left;verticalAlign=top;spacingLeft=4;spacingRight=4;overflow=hidden;rotatable=0;points=[[0,0.5],[1,0.5]];portConstraint=eastwest;whiteSpace=wrap;html=1;comic=0;jiggle=6;backgroundOutline=0;" parent="6s5vhWPi2oBte4bEisQO-147" vertex="1">
          <mxGeometry y="260" width="240" height="26" as="geometry" />
        </mxCell>
        <mxCell id="6s5vhWPi2oBte4bEisQO-170" value="inNetwork: bool" style="text;strokeColor=none;fillColor=none;align=left;verticalAlign=top;spacingLeft=4;spacingRight=4;overflow=hidden;rotatable=0;points=[[0,0.5],[1,0.5]];portConstraint=eastwest;whiteSpace=wrap;html=1;comic=0;jiggle=6;backgroundOutline=0;" parent="6s5vhWPi2oBte4bEisQO-147" vertex="1">
          <mxGeometry y="286" width="240" height="26" as="geometry" />
        </mxCell>
        <mxCell id="6s5vhWPi2oBte4bEisQO-155" value="Payment Plans" style="swimlane;fontStyle=0;childLayout=stackLayout;horizontal=1;startSize=26;fillColor=none;horizontalStack=0;resizeParent=1;resizeParentMax=0;resizeLast=0;collapsible=1;marginBottom=0;whiteSpace=wrap;html=1;comic=0;jiggle=6;backgroundOutline=0;" parent="WIyWlLk6GJQsqaUBKTNV-1" vertex="1">
          <mxGeometry x="-420" y="1590" width="190" height="182" as="geometry" />
        </mxCell>
        <mxCell id="6s5vhWPi2oBte4bEisQO-175" value="planID: string " style="text;strokeColor=none;fillColor=none;align=left;verticalAlign=top;spacingLeft=4;spacingRight=4;overflow=hidden;rotatable=0;points=[[0,0.5],[1,0.5]];portConstraint=eastwest;whiteSpace=wrap;html=1;comic=0;jiggle=6;backgroundOutline=0;" parent="6s5vhWPi2oBte4bEisQO-155" vertex="1">
          <mxGeometry y="26" width="190" height="26" as="geometry" />
        </mxCell>
        <mxCell id="6s5vhWPi2oBte4bEisQO-156" value="title: string" style="text;strokeColor=none;fillColor=none;align=left;verticalAlign=top;spacingLeft=4;spacingRight=4;overflow=hidden;rotatable=0;points=[[0,0.5],[1,0.5]];portConstraint=eastwest;whiteSpace=wrap;html=1;comic=0;jiggle=6;backgroundOutline=0;" parent="6s5vhWPi2oBte4bEisQO-155" vertex="1">
          <mxGeometry y="52" width="190" height="26" as="geometry" />
        </mxCell>
        <mxCell id="6s5vhWPi2oBte4bEisQO-157" value="paymentPeriodDays: int" style="text;strokeColor=none;fillColor=none;align=left;verticalAlign=top;spacingLeft=4;spacingRight=4;overflow=hidden;rotatable=0;points=[[0,0.5],[1,0.5]];portConstraint=eastwest;whiteSpace=wrap;html=1;comic=0;jiggle=6;backgroundOutline=0;" parent="6s5vhWPi2oBte4bEisQO-155" vertex="1">
          <mxGeometry y="78" width="190" height="26" as="geometry" />
        </mxCell>
        <mxCell id="6s5vhWPi2oBte4bEisQO-158" value="monthlyMinimum: float" style="text;strokeColor=none;fillColor=none;align=left;verticalAlign=top;spacingLeft=4;spacingRight=4;overflow=hidden;rotatable=0;points=[[0,0.5],[1,0.5]];portConstraint=eastwest;whiteSpace=wrap;html=1;comic=0;jiggle=6;backgroundOutline=0;" parent="6s5vhWPi2oBte4bEisQO-155" vertex="1">
          <mxGeometry y="104" width="190" height="26" as="geometry" />
        </mxCell>
        <mxCell id="6s5vhWPi2oBte4bEisQO-177" value="paidPrinciple: float" style="text;strokeColor=none;fillColor=none;align=left;verticalAlign=top;spacingLeft=4;spacingRight=4;overflow=hidden;rotatable=0;points=[[0,0.5],[1,0.5]];portConstraint=eastwest;whiteSpace=wrap;html=1;comic=0;jiggle=6;backgroundOutline=0;" parent="6s5vhWPi2oBte4bEisQO-155" vertex="1">
          <mxGeometry y="130" width="190" height="26" as="geometry" />
        </mxCell>
        <mxCell id="6s5vhWPi2oBte4bEisQO-178" value="monthlyInterest: float" style="text;strokeColor=none;fillColor=none;align=left;verticalAlign=top;spacingLeft=4;spacingRight=4;overflow=hidden;rotatable=0;points=[[0,0.5],[1,0.5]];portConstraint=eastwest;whiteSpace=wrap;html=1;comic=0;jiggle=6;backgroundOutline=0;" parent="6s5vhWPi2oBte4bEisQO-155" vertex="1">
          <mxGeometry y="156" width="190" height="26" as="geometry" />
        </mxCell>
        <mxCell id="6s5vhWPi2oBte4bEisQO-169" style="rounded=0;orthogonalLoop=1;jettySize=auto;html=1;edgeStyle=orthogonalEdgeStyle;jumpStyle=arc;comic=0;jiggle=6;backgroundOutline=0;endArrow=none;endFill=0;endSize=25;startSize=25;jumpSize=10;strokeColor=#000000;" parent="WIyWlLk6GJQsqaUBKTNV-1" source="6s5vhWPi2oBte4bEisQO-147" target="cIcH_N4xVWaxeV6_vvsU-0" edge="1">
          <mxGeometry relative="1" as="geometry">
            <Array as="points">
              <mxPoint x="-520" y="1800" />
              <mxPoint x="-150" y="1800" />
            </Array>
            <mxPoint x="-319.923076923077" y="1478" as="targetPoint" />
          </mxGeometry>
        </mxCell>
        <mxCell id="6s5vhWPi2oBte4bEisQO-171" style="rounded=0;orthogonalLoop=1;jettySize=auto;html=1;edgeStyle=orthogonalEdgeStyle;jumpStyle=arc;comic=0;jiggle=6;backgroundOutline=0;endSize=25;startSize=25;jumpSize=10;startArrow=none;startFill=0;endArrow=diamondThin;endFill=0;" parent="WIyWlLk6GJQsqaUBKTNV-1" source="6s5vhWPi2oBte4bEisQO-147" target="6s5vhWPi2oBte4bEisQO-113" edge="1">
          <mxGeometry relative="1" as="geometry">
            <Array as="points">
              <mxPoint x="-550" y="1110" />
              <mxPoint x="-550" y="1110" />
            </Array>
          </mxGeometry>
        </mxCell>
        <mxCell id="6s5vhWPi2oBte4bEisQO-173" style="rounded=0;orthogonalLoop=1;jettySize=auto;html=1;edgeStyle=orthogonalEdgeStyle;jumpStyle=arc;comic=0;jiggle=6;backgroundOutline=0;endSize=25;startSize=25;jumpSize=10;startArrow=none;startFill=0;endArrow=diamondThin;endFill=1;" parent="WIyWlLk6GJQsqaUBKTNV-1" source="6s5vhWPi2oBte4bEisQO-147" target="6s5vhWPi2oBte4bEisQO-65" edge="1">
          <mxGeometry relative="1" as="geometry">
            <Array as="points">
              <mxPoint x="-480" y="1226" />
            </Array>
          </mxGeometry>
        </mxCell>
        <mxCell id="6s5vhWPi2oBte4bEisQO-174" style="rounded=0;orthogonalLoop=1;jettySize=auto;html=1;edgeStyle=orthogonalEdgeStyle;jumpStyle=arc;comic=0;jiggle=6;backgroundOutline=0;endSize=25;startSize=25;jumpSize=10;startArrow=none;startFill=0;endArrow=diamondThin;endFill=1;" parent="WIyWlLk6GJQsqaUBKTNV-1" source="6s5vhWPi2oBte4bEisQO-147" target="6s5vhWPi2oBte4bEisQO-0" edge="1">
          <mxGeometry relative="1" as="geometry">
            <Array as="points">
              <mxPoint x="-500" y="1080" />
            </Array>
            <mxPoint x="21" y="1579.0526315789475" as="targetPoint" />
          </mxGeometry>
        </mxCell>
        <mxCell id="6s5vhWPi2oBte4bEisQO-176" style="rounded=0;orthogonalLoop=1;jettySize=auto;html=1;edgeStyle=orthogonalEdgeStyle;jumpStyle=arc;comic=0;jiggle=6;backgroundOutline=0;endSize=25;startSize=25;jumpSize=10;endArrow=diamondThin;endFill=1;startArrow=none;startFill=0;" parent="WIyWlLk6GJQsqaUBKTNV-1" source="6s5vhWPi2oBte4bEisQO-147" target="6s5vhWPi2oBte4bEisQO-155" edge="1">
          <mxGeometry relative="1" as="geometry">
            <Array as="points">
              <mxPoint x="-480" y="1610" />
            </Array>
          </mxGeometry>
        </mxCell>
        <mxCell id="6s5vhWPi2oBte4bEisQO-179" value="Claim" style="swimlane;fontStyle=0;childLayout=stackLayout;horizontal=1;startSize=26;fillColor=none;horizontalStack=0;resizeParent=1;resizeParentMax=0;resizeLast=0;collapsible=1;marginBottom=0;whiteSpace=wrap;html=1;comic=0;jiggle=6;backgroundOutline=0;" parent="WIyWlLk6GJQsqaUBKTNV-1" vertex="1">
          <mxGeometry x="-310" y="1244" width="246" height="286" as="geometry" />
        </mxCell>
        <mxCell id="6s5vhWPi2oBte4bEisQO-183" value="claimID: string " style="text;strokeColor=none;fillColor=none;align=left;verticalAlign=top;spacingLeft=4;spacingRight=4;overflow=hidden;rotatable=0;points=[[0,0.5],[1,0.5]];portConstraint=eastwest;whiteSpace=wrap;html=1;comic=0;jiggle=6;backgroundOutline=0;" parent="6s5vhWPi2oBte4bEisQO-179" vertex="1">
          <mxGeometry y="26" width="246" height="26" as="geometry" />
        </mxCell>
        <mxCell id="6s5vhWPi2oBte4bEisQO-180" value="fileDate: datetime" style="text;strokeColor=none;fillColor=none;align=left;verticalAlign=top;spacingLeft=4;spacingRight=4;overflow=hidden;rotatable=0;points=[[0,0.5],[1,0.5]];portConstraint=eastwest;whiteSpace=wrap;html=1;comic=0;jiggle=6;backgroundOutline=0;" parent="6s5vhWPi2oBte4bEisQO-179" vertex="1">
          <mxGeometry y="52" width="246" height="26" as="geometry" />
        </mxCell>
        <mxCell id="6s5vhWPi2oBte4bEisQO-184" value="appointmentID: string " style="text;strokeColor=none;fillColor=none;align=left;verticalAlign=top;spacingLeft=4;spacingRight=4;overflow=hidden;rotatable=0;points=[[0,0.5],[1,0.5]];portConstraint=eastwest;whiteSpace=wrap;html=1;comic=0;jiggle=6;backgroundOutline=0;" parent="6s5vhWPi2oBte4bEisQO-179" vertex="1">
          <mxGeometry y="78" width="246" height="26" as="geometry" />
        </mxCell>
        <mxCell id="6s5vhWPi2oBte4bEisQO-181" value="membershipID: string " style="text;strokeColor=none;fillColor=none;align=left;verticalAlign=top;spacingLeft=4;spacingRight=4;overflow=hidden;rotatable=0;points=[[0,0.5],[1,0.5]];portConstraint=eastwest;whiteSpace=wrap;html=1;comic=0;jiggle=6;backgroundOutline=0;" parent="6s5vhWPi2oBte4bEisQO-179" vertex="1">
          <mxGeometry y="104" width="246" height="26" as="geometry" />
        </mxCell>
        <mxCell id="6s5vhWPi2oBte4bEisQO-185" value="paymentPlanID: string " style="text;strokeColor=none;fillColor=none;align=left;verticalAlign=top;spacingLeft=4;spacingRight=4;overflow=hidden;rotatable=0;points=[[0,0.5],[1,0.5]];portConstraint=eastwest;whiteSpace=wrap;html=1;comic=0;jiggle=6;backgroundOutline=0;" parent="6s5vhWPi2oBte4bEisQO-179" vertex="1">
          <mxGeometry y="130" width="246" height="26" as="geometry" />
        </mxCell>
        <mxCell id="6s5vhWPi2oBte4bEisQO-186" value="paidDeductible: float" style="text;strokeColor=none;fillColor=none;align=left;verticalAlign=top;spacingLeft=4;spacingRight=4;overflow=hidden;rotatable=0;points=[[0,0.5],[1,0.5]];portConstraint=eastwest;whiteSpace=wrap;html=1;comic=0;jiggle=6;backgroundOutline=0;" parent="6s5vhWPi2oBte4bEisQO-179" vertex="1">
          <mxGeometry y="156" width="246" height="26" as="geometry" />
        </mxCell>
        <mxCell id="6s5vhWPi2oBte4bEisQO-187" value="patientCopay: float" style="text;strokeColor=none;fillColor=none;align=left;verticalAlign=top;spacingLeft=4;spacingRight=4;overflow=hidden;rotatable=0;points=[[0,0.5],[1,0.5]];portConstraint=eastwest;whiteSpace=wrap;html=1;comic=0;jiggle=6;backgroundOutline=0;" parent="6s5vhWPi2oBte4bEisQO-179" vertex="1">
          <mxGeometry y="182" width="246" height="26" as="geometry" />
        </mxCell>
        <mxCell id="6s5vhWPi2oBte4bEisQO-188" value="insurancePay: float" style="text;strokeColor=none;fillColor=none;align=left;verticalAlign=top;spacingLeft=4;spacingRight=4;overflow=hidden;rotatable=0;points=[[0,0.5],[1,0.5]];portConstraint=eastwest;whiteSpace=wrap;html=1;comic=0;jiggle=6;backgroundOutline=0;" parent="6s5vhWPi2oBte4bEisQO-179" vertex="1">
          <mxGeometry y="208" width="246" height="26" as="geometry" />
        </mxCell>
        <mxCell id="6s5vhWPi2oBte4bEisQO-189" value="claimStatus: string " style="text;strokeColor=none;fillColor=none;align=left;verticalAlign=top;spacingLeft=4;spacingRight=4;overflow=hidden;rotatable=0;points=[[0,0.5],[1,0.5]];portConstraint=eastwest;whiteSpace=wrap;html=1;comic=0;jiggle=6;backgroundOutline=0;" parent="6s5vhWPi2oBte4bEisQO-179" vertex="1">
          <mxGeometry y="234" width="246" height="26" as="geometry" />
        </mxCell>
        <mxCell id="6s5vhWPi2oBte4bEisQO-191" value="adjustments: float" style="text;strokeColor=none;fillColor=none;align=left;verticalAlign=top;spacingLeft=4;spacingRight=4;overflow=hidden;rotatable=0;points=[[0,0.5],[1,0.5]];portConstraint=eastwest;whiteSpace=wrap;html=1;comic=0;jiggle=6;backgroundOutline=0;" parent="6s5vhWPi2oBte4bEisQO-179" vertex="1">
          <mxGeometry y="260" width="246" height="26" as="geometry" />
        </mxCell>
        <mxCell id="6s5vhWPi2oBte4bEisQO-192" style="rounded=0;orthogonalLoop=1;jettySize=auto;html=1;edgeStyle=orthogonalEdgeStyle;jumpStyle=arc;comic=0;jiggle=6;backgroundOutline=0;endSize=25;startSize=25;jumpSize=10;endArrow=diamondThin;endFill=1;startArrow=none;startFill=0;" parent="WIyWlLk6GJQsqaUBKTNV-1" source="6s5vhWPi2oBte4bEisQO-179" target="6s5vhWPi2oBte4bEisQO-0" edge="1">
          <mxGeometry relative="1" as="geometry">
            <Array as="points">
              <mxPoint x="-187" y="1150" />
            </Array>
          </mxGeometry>
        </mxCell>
        <mxCell id="6s5vhWPi2oBte4bEisQO-194" style="rounded=0;orthogonalLoop=1;jettySize=auto;html=1;edgeStyle=orthogonalEdgeStyle;jumpStyle=arc;comic=0;jiggle=6;backgroundOutline=0;endSize=25;startSize=25;jumpSize=10;endArrow=diamondThin;endFill=1;startArrow=none;startFill=0;" parent="WIyWlLk6GJQsqaUBKTNV-1" source="6s5vhWPi2oBte4bEisQO-179" target="6s5vhWPi2oBte4bEisQO-65" edge="1">
          <mxGeometry relative="1" as="geometry">
            <Array as="points">
              <mxPoint x="20" y="1330" />
              <mxPoint x="20" y="1330" />
            </Array>
          </mxGeometry>
        </mxCell>
        <mxCell id="6s5vhWPi2oBte4bEisQO-195" style="rounded=0;orthogonalLoop=1;jettySize=auto;html=1;edgeStyle=orthogonalEdgeStyle;jumpStyle=arc;comic=0;jiggle=6;backgroundOutline=0;endSize=25;startSize=25;jumpSize=10;endArrow=diamondThin;endFill=1;startArrow=none;startFill=0;" parent="WIyWlLk6GJQsqaUBKTNV-1" source="6s5vhWPi2oBte4bEisQO-179" target="6s5vhWPi2oBte4bEisQO-155" edge="1">
          <mxGeometry relative="1" as="geometry">
            <Array as="points">
              <mxPoint x="-180" y="1610" />
            </Array>
          </mxGeometry>
        </mxCell>
        <mxCell id="6s5vhWPi2oBte4bEisQO-19" value="Procedure Timeline" style="swimlane;fontStyle=0;childLayout=stackLayout;horizontal=1;startSize=26;fillColor=none;horizontalStack=0;resizeParent=1;resizeParentMax=0;resizeLast=0;collapsible=1;marginBottom=0;whiteSpace=wrap;html=1;comic=0;jiggle=6;backgroundOutline=0;" parent="WIyWlLk6GJQsqaUBKTNV-1" vertex="1">
          <mxGeometry x="377.5" y="1148" width="310" height="156" as="geometry" />
        </mxCell>
        <mxCell id="6s5vhWPi2oBte4bEisQO-20" value="procedureID: string " style="text;strokeColor=none;fillColor=none;align=left;verticalAlign=top;spacingLeft=4;spacingRight=4;overflow=hidden;rotatable=0;points=[[0,0.5],[1,0.5]];portConstraint=eastwest;whiteSpace=wrap;html=1;comic=0;jiggle=6;backgroundOutline=0;" parent="6s5vhWPi2oBte4bEisQO-19" vertex="1">
          <mxGeometry y="26" width="310" height="26" as="geometry" />
        </mxCell>
        <mxCell id="6s5vhWPi2oBte4bEisQO-21" value="procedureDescription: string" style="text;strokeColor=none;fillColor=none;align=left;verticalAlign=top;spacingLeft=4;spacingRight=4;overflow=hidden;rotatable=0;points=[[0,0.5],[1,0.5]];portConstraint=eastwest;whiteSpace=wrap;html=1;comic=0;jiggle=6;backgroundOutline=0;" parent="6s5vhWPi2oBte4bEisQO-19" vertex="1">
          <mxGeometry y="52" width="310" height="26" as="geometry" />
        </mxCell>
        <mxCell id="6s5vhWPi2oBte4bEisQO-22" value="code: string [UNIQUE]" style="text;strokeColor=none;fillColor=none;align=left;verticalAlign=top;spacingLeft=4;spacingRight=4;overflow=hidden;rotatable=0;points=[[0,0.5],[1,0.5]];portConstraint=eastwest;whiteSpace=wrap;html=1;comic=0;jiggle=6;backgroundOutline=0;" parent="6s5vhWPi2oBte4bEisQO-19" vertex="1">
          <mxGeometry y="78" width="310" height="26" as="geometry" />
        </mxCell>
        <mxCell id="6s5vhWPi2oBte4bEisQO-27" value="fee: float" style="text;strokeColor=none;fillColor=none;align=left;verticalAlign=top;spacingLeft=4;spacingRight=4;overflow=hidden;rotatable=0;points=[[0,0.5],[1,0.5]];portConstraint=eastwest;whiteSpace=wrap;html=1;comic=0;jiggle=6;backgroundOutline=0;" parent="6s5vhWPi2oBte4bEisQO-19" vertex="1">
          <mxGeometry y="104" width="310" height="26" as="geometry" />
        </mxCell>
        <mxCell id="6s5vhWPi2oBte4bEisQO-88" value="department: string " style="text;strokeColor=none;fillColor=none;align=left;verticalAlign=top;spacingLeft=4;spacingRight=4;overflow=hidden;rotatable=0;points=[[0,0.5],[1,0.5]];portConstraint=eastwest;whiteSpace=wrap;html=1;comic=0;jiggle=6;backgroundOutline=0;" parent="6s5vhWPi2oBte4bEisQO-19" vertex="1">
          <mxGeometry y="130" width="310" height="26" as="geometry" />
        </mxCell>
        <mxCell id="iYLA2cjFfp99bQqYAzTN-24" style="edgeStyle=orthogonalEdgeStyle;rounded=0;orthogonalLoop=1;jettySize=auto;html=1;jumpStyle=arc;comic=0;jiggle=6;backgroundOutline=0;endSize=25;startSize=25;jumpSize=10;endArrow=diamondThin;endFill=1;startArrow=none;startFill=0;" parent="WIyWlLk6GJQsqaUBKTNV-1" source="6s5vhWPi2oBte4bEisQO-79" target="6s5vhWPi2oBte4bEisQO-54" edge="1">
          <mxGeometry relative="1" as="geometry">
            <Array as="points">
              <mxPoint x="250" y="1740" />
              <mxPoint x="250" y="1740" />
            </Array>
          </mxGeometry>
        </mxCell>
        <mxCell id="cIcH_N4xVWaxeV6_vvsU-0" value="Status Lookup Table" style="swimlane;fontStyle=0;childLayout=stackLayout;horizontal=1;startSize=26;fillColor=none;horizontalStack=0;resizeParent=1;resizeParentMax=0;resizeLast=0;collapsible=1;marginBottom=0;whiteSpace=wrap;html=1;comic=0;jiggle=6;backgroundOutline=0;strokeColor=#000000;" parent="WIyWlLk6GJQsqaUBKTNV-1" vertex="1">
          <mxGeometry x="-170" y="1668" width="140" height="78" as="geometry" />
        </mxCell>
        <mxCell id="cIcH_N4xVWaxeV6_vvsU-1" value="statusID: string " style="text;strokeColor=none;fillColor=none;align=left;verticalAlign=top;spacingLeft=4;spacingRight=4;overflow=hidden;rotatable=0;points=[[0,0.5],[1,0.5]];portConstraint=eastwest;whiteSpace=wrap;html=1;comic=0;jiggle=6;backgroundOutline=0;" parent="cIcH_N4xVWaxeV6_vvsU-0" vertex="1">
          <mxGeometry y="26" width="140" height="26" as="geometry" />
        </mxCell>
        <mxCell id="cIcH_N4xVWaxeV6_vvsU-2" value="statusName: string" style="text;strokeColor=none;fillColor=none;align=left;verticalAlign=top;spacingLeft=4;spacingRight=4;overflow=hidden;rotatable=0;points=[[0,0.5],[1,0.5]];portConstraint=eastwest;whiteSpace=wrap;html=1;comic=0;jiggle=6;backgroundOutline=0;" parent="cIcH_N4xVWaxeV6_vvsU-0" vertex="1">
          <mxGeometry y="52" width="140" height="26" as="geometry" />
        </mxCell>
        <mxCell id="cIcH_N4xVWaxeV6_vvsU-4" style="edgeStyle=orthogonalEdgeStyle;rounded=0;orthogonalLoop=1;jettySize=auto;html=1;jumpStyle=arc;comic=0;jiggle=6;backgroundOutline=0;endArrow=none;endFill=0;endSize=25;startSize=25;jumpSize=10;strokeColor=#000000;" parent="WIyWlLk6GJQsqaUBKTNV-1" source="6s5vhWPi2oBte4bEisQO-179" target="cIcH_N4xVWaxeV6_vvsU-0" edge="1">
          <mxGeometry relative="1" as="geometry">
            <mxPoint x="240" y="1850" as="targetPoint" />
            <Array as="points">
              <mxPoint x="-120" y="1560" />
              <mxPoint x="-120" y="1560" />
            </Array>
          </mxGeometry>
        </mxCell>
        <mxCell id="97GXB3wI6G499iXnofWW-1" style="edgeStyle=orthogonalEdgeStyle;rounded=0;orthogonalLoop=1;jettySize=auto;html=1;endArrow=none;endFill=0;startArrow=diamondThin;startFill=1;endSize=25;startSize=20;jumpStyle=arc;jumpSize=10;strokeColor=#6C8EBF;" edge="1" parent="WIyWlLk6GJQsqaUBKTNV-1" source="iXaf-DERiKh6bUlAR3Fj-0" target="6s5vhWPi2oBte4bEisQO-31">
          <mxGeometry relative="1" as="geometry">
            <Array as="points">
              <mxPoint x="930" y="1710" />
              <mxPoint x="930" y="1710" />
            </Array>
          </mxGeometry>
        </mxCell>
        <mxCell id="iXaf-DERiKh6bUlAR3Fj-0" value="SupplyInventory" style="swimlane;fontStyle=0;childLayout=stackLayout;horizontal=1;startSize=26;fillColor=none;horizontalStack=0;resizeParent=1;resizeParentMax=0;resizeLast=0;collapsible=1;marginBottom=0;whiteSpace=wrap;html=1;strokeColor=#66B2FF;comic=0;jiggle=6;backgroundOutline=0;" parent="WIyWlLk6GJQsqaUBKTNV-1" vertex="1">
          <mxGeometry x="830" y="2156" width="200" height="130" as="geometry" />
        </mxCell>
        <mxCell id="iXaf-DERiKh6bUlAR3Fj-1" value="supplyID: string " style="text;strokeColor=none;fillColor=none;align=left;verticalAlign=top;spacingLeft=4;spacingRight=4;overflow=hidden;rotatable=0;points=[[0,0.5],[1,0.5]];portConstraint=eastwest;whiteSpace=wrap;html=1;comic=0;jiggle=6;backgroundOutline=0;" parent="iXaf-DERiKh6bUlAR3Fj-0" vertex="1">
          <mxGeometry y="26" width="200" height="26" as="geometry" />
        </mxCell>
        <mxCell id="iXaf-DERiKh6bUlAR3Fj-4" value="quantity: int" style="text;strokeColor=none;fillColor=none;align=left;verticalAlign=top;spacingLeft=4;spacingRight=4;overflow=hidden;rotatable=0;points=[[0,0.5],[1,0.5]];portConstraint=eastwest;whiteSpace=wrap;html=1;comic=0;jiggle=6;backgroundOutline=0;" parent="iXaf-DERiKh6bUlAR3Fj-0" vertex="1">
          <mxGeometry y="52" width="200" height="26" as="geometry" />
        </mxCell>
        <mxCell id="iXaf-DERiKh6bUlAR3Fj-5" value="quantityUnit: string" style="text;strokeColor=none;fillColor=none;align=left;verticalAlign=top;spacingLeft=4;spacingRight=4;overflow=hidden;rotatable=0;points=[[0,0.5],[1,0.5]];portConstraint=eastwest;whiteSpace=wrap;html=1;comic=0;jiggle=6;backgroundOutline=0;" parent="iXaf-DERiKh6bUlAR3Fj-0" vertex="1">
          <mxGeometry y="78" width="200" height="26" as="geometry" />
        </mxCell>
        <mxCell id="iXaf-DERiKh6bUlAR3Fj-6" value="unitPrice: float" style="text;strokeColor=none;fillColor=none;align=left;verticalAlign=top;spacingLeft=4;spacingRight=4;overflow=hidden;rotatable=0;points=[[0,0.5],[1,0.5]];portConstraint=eastwest;whiteSpace=wrap;html=1;comic=0;jiggle=6;backgroundOutline=0;" parent="iXaf-DERiKh6bUlAR3Fj-0" vertex="1">
          <mxGeometry y="104" width="200" height="26" as="geometry" />
        </mxCell>
        <mxCell id="XNJbn17Z0ETbCCURGHxT-0" value="Payroll" style="swimlane;fontStyle=0;childLayout=stackLayout;horizontal=1;startSize=26;fillColor=none;horizontalStack=0;resizeParent=1;resizeParentMax=0;resizeLast=0;collapsible=1;marginBottom=0;whiteSpace=wrap;html=1;strokeColor=#66B2FF;comic=0;jiggle=6;backgroundOutline=0;" parent="WIyWlLk6GJQsqaUBKTNV-1" vertex="1">
          <mxGeometry x="560" y="1738" width="205" height="442" as="geometry" />
        </mxCell>
        <mxCell id="XNJbn17Z0ETbCCURGHxT-1" value="paymentID: string " style="text;strokeColor=none;fillColor=none;align=left;verticalAlign=top;spacingLeft=4;spacingRight=4;overflow=hidden;rotatable=0;points=[[0,0.5],[1,0.5]];portConstraint=eastwest;whiteSpace=wrap;html=1;comic=0;jiggle=6;backgroundOutline=0;" parent="XNJbn17Z0ETbCCURGHxT-0" vertex="1">
          <mxGeometry y="26" width="205" height="26" as="geometry" />
        </mxCell>
        <mxCell id="XNJbn17Z0ETbCCURGHxT-2" value="date: date" style="text;strokeColor=none;fillColor=none;align=left;verticalAlign=top;spacingLeft=4;spacingRight=4;overflow=hidden;rotatable=0;points=[[0,0.5],[1,0.5]];portConstraint=eastwest;whiteSpace=wrap;html=1;comic=0;jiggle=6;backgroundOutline=0;" parent="XNJbn17Z0ETbCCURGHxT-0" vertex="1">
          <mxGeometry y="52" width="205" height="26" as="geometry" />
        </mxCell>
        <mxCell id="XNJbn17Z0ETbCCURGHxT-3" value="staffID:string " style="text;strokeColor=none;fillColor=none;align=left;verticalAlign=top;spacingLeft=4;spacingRight=4;overflow=hidden;rotatable=0;points=[[0,0.5],[1,0.5]];portConstraint=eastwest;whiteSpace=wrap;html=1;comic=0;jiggle=6;backgroundOutline=0;" parent="XNJbn17Z0ETbCCURGHxT-0" vertex="1">
          <mxGeometry y="78" width="205" height="26" as="geometry" />
        </mxCell>
        <mxCell id="XNJbn17Z0ETbCCURGHxT-4" value="payType: string " style="text;strokeColor=none;fillColor=none;align=left;verticalAlign=top;spacingLeft=4;spacingRight=4;overflow=hidden;rotatable=0;points=[[0,0.5],[1,0.5]];portConstraint=eastwest;whiteSpace=wrap;html=1;shadow=0;comic=0;jiggle=6;backgroundOutline=0;" parent="XNJbn17Z0ETbCCURGHxT-0" vertex="1">
          <mxGeometry y="104" width="205" height="26" as="geometry" />
        </mxCell>
        <mxCell id="XNJbn17Z0ETbCCURGHxT-5" value="staffTIN: string" style="text;strokeColor=none;fillColor=none;align=left;verticalAlign=top;spacingLeft=4;spacingRight=4;overflow=hidden;rotatable=0;points=[[0,0.5],[1,0.5]];portConstraint=eastwest;whiteSpace=wrap;html=1;comic=0;jiggle=6;backgroundOutline=0;" parent="XNJbn17Z0ETbCCURGHxT-0" vertex="1">
          <mxGeometry y="130" width="205" height="26" as="geometry" />
        </mxCell>
        <mxCell id="XNJbn17Z0ETbCCURGHxT-6" value="grossWages: float" style="text;strokeColor=none;fillColor=none;align=left;verticalAlign=top;spacingLeft=4;spacingRight=4;overflow=hidden;rotatable=0;points=[[0,0.5],[1,0.5]];portConstraint=eastwest;whiteSpace=wrap;html=1;comic=0;jiggle=6;backgroundOutline=0;" parent="XNJbn17Z0ETbCCURGHxT-0" vertex="1">
          <mxGeometry y="156" width="205" height="26" as="geometry" />
        </mxCell>
        <mxCell id="XNJbn17Z0ETbCCURGHxT-7" value="socialTaxableWages: float" style="text;strokeColor=none;fillColor=none;align=left;verticalAlign=top;spacingLeft=4;spacingRight=4;overflow=hidden;rotatable=0;points=[[0,0.5],[1,0.5]];portConstraint=eastwest;whiteSpace=wrap;html=1;comic=0;jiggle=6;backgroundOutline=0;" parent="XNJbn17Z0ETbCCURGHxT-0" vertex="1">
          <mxGeometry y="182" width="205" height="26" as="geometry" />
        </mxCell>
        <mxCell id="XNJbn17Z0ETbCCURGHxT-8" value="socialTax: float" style="text;strokeColor=none;fillColor=none;align=left;verticalAlign=top;spacingLeft=4;spacingRight=4;overflow=hidden;rotatable=0;points=[[0,0.5],[1,0.5]];portConstraint=eastwest;whiteSpace=wrap;html=1;comic=0;jiggle=6;backgroundOutline=0;" parent="XNJbn17Z0ETbCCURGHxT-0" vertex="1">
          <mxGeometry y="208" width="205" height="26" as="geometry" />
        </mxCell>
        <mxCell id="XNJbn17Z0ETbCCURGHxT-9" value="medicareTaxableWages: float" style="text;strokeColor=none;fillColor=none;align=left;verticalAlign=top;spacingLeft=4;spacingRight=4;overflow=hidden;rotatable=0;points=[[0,0.5],[1,0.5]];portConstraint=eastwest;whiteSpace=wrap;html=1;comic=0;jiggle=6;backgroundOutline=0;" parent="XNJbn17Z0ETbCCURGHxT-0" vertex="1">
          <mxGeometry y="234" width="205" height="26" as="geometry" />
        </mxCell>
        <mxCell id="XNJbn17Z0ETbCCURGHxT-10" value="medicareTax: float" style="text;strokeColor=none;fillColor=none;align=left;verticalAlign=top;spacingLeft=4;spacingRight=4;overflow=hidden;rotatable=0;points=[[0,0.5],[1,0.5]];portConstraint=eastwest;whiteSpace=wrap;html=1;comic=0;jiggle=6;backgroundOutline=0;" parent="XNJbn17Z0ETbCCURGHxT-0" vertex="1">
          <mxGeometry y="260" width="205" height="26" as="geometry" />
        </mxCell>
        <mxCell id="XNJbn17Z0ETbCCURGHxT-11" value="localTaxableWages: float" style="text;strokeColor=none;fillColor=none;align=left;verticalAlign=top;spacingLeft=4;spacingRight=4;overflow=hidden;rotatable=0;points=[[0,0.5],[1,0.5]];portConstraint=eastwest;whiteSpace=wrap;html=1;comic=0;jiggle=6;backgroundOutline=0;" parent="XNJbn17Z0ETbCCURGHxT-0" vertex="1">
          <mxGeometry y="286" width="205" height="26" as="geometry" />
        </mxCell>
        <mxCell id="XNJbn17Z0ETbCCURGHxT-12" value="localTax: float" style="text;strokeColor=none;fillColor=none;align=left;verticalAlign=top;spacingLeft=4;spacingRight=4;overflow=hidden;rotatable=0;points=[[0,0.5],[1,0.5]];portConstraint=eastwest;whiteSpace=wrap;html=1;comic=0;jiggle=6;backgroundOutline=0;" parent="XNJbn17Z0ETbCCURGHxT-0" vertex="1">
          <mxGeometry y="312" width="205" height="26" as="geometry" />
        </mxCell>
        <mxCell id="XNJbn17Z0ETbCCURGHxT-13" value="localName: string" style="text;strokeColor=none;fillColor=none;align=left;verticalAlign=top;spacingLeft=4;spacingRight=4;overflow=hidden;rotatable=0;points=[[0,0.5],[1,0.5]];portConstraint=eastwest;whiteSpace=wrap;html=1;comic=0;jiggle=6;backgroundOutline=0;" parent="XNJbn17Z0ETbCCURGHxT-0" vertex="1">
          <mxGeometry y="338" width="205" height="26" as="geometry" />
        </mxCell>
        <mxCell id="XNJbn17Z0ETbCCURGHxT-14" value="stateTaxableWages: float" style="text;strokeColor=none;fillColor=none;align=left;verticalAlign=top;spacingLeft=4;spacingRight=4;overflow=hidden;rotatable=0;points=[[0,0.5],[1,0.5]];portConstraint=eastwest;whiteSpace=wrap;html=1;comic=0;jiggle=6;backgroundOutline=0;" parent="XNJbn17Z0ETbCCURGHxT-0" vertex="1">
          <mxGeometry y="364" width="205" height="26" as="geometry" />
        </mxCell>
        <mxCell id="XNJbn17Z0ETbCCURGHxT-15" value="stateTax: float" style="text;strokeColor=none;fillColor=none;align=left;verticalAlign=top;spacingLeft=4;spacingRight=4;overflow=hidden;rotatable=0;points=[[0,0.5],[1,0.5]];portConstraint=eastwest;whiteSpace=wrap;html=1;comic=0;jiggle=6;backgroundOutline=0;" parent="XNJbn17Z0ETbCCURGHxT-0" vertex="1">
          <mxGeometry y="390" width="205" height="26" as="geometry" />
        </mxCell>
        <mxCell id="XNJbn17Z0ETbCCURGHxT-16" value="fedTax: float" style="text;strokeColor=none;fillColor=none;align=left;verticalAlign=top;spacingLeft=4;spacingRight=4;overflow=hidden;rotatable=0;points=[[0,0.5],[1,0.5]];portConstraint=eastwest;whiteSpace=wrap;html=1;comic=0;jiggle=6;backgroundOutline=0;" parent="XNJbn17Z0ETbCCURGHxT-0" vertex="1">
          <mxGeometry y="416" width="205" height="26" as="geometry" />
        </mxCell>
        <mxCell id="XNJbn17Z0ETbCCURGHxT-25" style="edgeStyle=orthogonalEdgeStyle;rounded=0;orthogonalLoop=1;jettySize=auto;html=1;jumpStyle=arc;comic=0;jiggle=6;backgroundOutline=0;endArrow=none;endFill=0;endSize=25;startSize=25;jumpSize=10;strokeColor=#000000;" parent="WIyWlLk6GJQsqaUBKTNV-1" source="6s5vhWPi2oBte4bEisQO-0" target="cIcH_N4xVWaxeV6_vvsU-0" edge="1">
          <mxGeometry relative="1" as="geometry">
            <Array as="points">
              <mxPoint x="-40" y="1115" />
            </Array>
          </mxGeometry>
        </mxCell>
        <mxCell id="XNJbn17Z0ETbCCURGHxT-28" value="Pay Type Lookup Table" style="swimlane;fontStyle=0;childLayout=stackLayout;horizontal=1;startSize=26;fillColor=none;horizontalStack=0;resizeParent=1;resizeParentMax=0;resizeLast=0;collapsible=1;marginBottom=0;whiteSpace=wrap;html=1;strokeColor=#66B2FF;comic=0;jiggle=6;backgroundOutline=0;" parent="WIyWlLk6GJQsqaUBKTNV-1" vertex="1">
          <mxGeometry x="362" y="1907" width="156" height="104" as="geometry" />
        </mxCell>
        <mxCell id="XNJbn17Z0ETbCCURGHxT-29" value="payTypeID: string " style="text;strokeColor=none;fillColor=none;align=left;verticalAlign=top;spacingLeft=4;spacingRight=4;overflow=hidden;rotatable=0;points=[[0,0.5],[1,0.5]];portConstraint=eastwest;whiteSpace=wrap;html=1;comic=0;jiggle=6;backgroundOutline=0;" parent="XNJbn17Z0ETbCCURGHxT-28" vertex="1">
          <mxGeometry y="26" width="156" height="26" as="geometry" />
        </mxCell>
        <mxCell id="XNJbn17Z0ETbCCURGHxT-30" value="paymentType: string" style="text;strokeColor=none;fillColor=none;align=left;verticalAlign=top;spacingLeft=4;spacingRight=4;overflow=hidden;rotatable=0;points=[[0,0.5],[1,0.5]];portConstraint=eastwest;whiteSpace=wrap;html=1;comic=0;jiggle=6;backgroundOutline=0;" parent="XNJbn17Z0ETbCCURGHxT-28" vertex="1">
          <mxGeometry y="52" width="156" height="26" as="geometry" />
        </mxCell>
        <mxCell id="XNJbn17Z0ETbCCURGHxT-31" value="taxDocumentType: string" style="text;strokeColor=none;fillColor=none;align=left;verticalAlign=top;spacingLeft=4;spacingRight=4;overflow=hidden;rotatable=0;points=[[0,0.5],[1,0.5]];portConstraint=eastwest;whiteSpace=wrap;html=1;comic=0;jiggle=6;backgroundOutline=0;" parent="XNJbn17Z0ETbCCURGHxT-28" vertex="1">
          <mxGeometry y="78" width="156" height="26" as="geometry" />
        </mxCell>
        <mxCell id="_RMVuCj_aNO2bqz8egUr-0" style="edgeStyle=orthogonalEdgeStyle;rounded=0;orthogonalLoop=1;jettySize=auto;html=1;fillColor=#dae8fc;strokeColor=#6c8ebf;jumpStyle=arc;comic=0;jiggle=6;backgroundOutline=0;endArrow=none;endFill=0;endSize=25;startSize=25;jumpSize=10;startArrow=diamondThin;startFill=1;" parent="WIyWlLk6GJQsqaUBKTNV-1" source="XNJbn17Z0ETbCCURGHxT-28" target="XNJbn17Z0ETbCCURGHxT-0" edge="1">
          <mxGeometry relative="1" as="geometry" />
        </mxCell>
        <mxCell id="_RMVuCj_aNO2bqz8egUr-1" style="edgeStyle=orthogonalEdgeStyle;rounded=0;orthogonalLoop=1;jettySize=auto;html=1;fillColor=#dae8fc;strokeColor=#6c8ebf;jumpStyle=arc;comic=0;jiggle=6;backgroundOutline=0;endArrow=none;endFill=0;endSize=25;startSize=25;jumpSize=10;startArrow=diamondThin;startFill=1;" parent="WIyWlLk6GJQsqaUBKTNV-1" source="XNJbn17Z0ETbCCURGHxT-28" target="6s5vhWPi2oBte4bEisQO-77" edge="1">
          <mxGeometry relative="1" as="geometry">
            <Array as="points" />
          </mxGeometry>
        </mxCell>
        <mxCell id="_RMVuCj_aNO2bqz8egUr-2" value="Purchase Orders" style="swimlane;fontStyle=0;childLayout=stackLayout;horizontal=1;startSize=26;fillColor=none;horizontalStack=0;resizeParent=1;resizeParentMax=0;resizeLast=0;collapsible=1;marginBottom=0;whiteSpace=wrap;html=1;strokeColor=#66B2FF;comic=0;jiggle=6;backgroundOutline=0;" parent="WIyWlLk6GJQsqaUBKTNV-1" vertex="1">
          <mxGeometry x="570" y="2260" width="200" height="234" as="geometry" />
        </mxCell>
        <mxCell id="_RMVuCj_aNO2bqz8egUr-3" value="orderID: string " style="text;strokeColor=none;fillColor=none;align=left;verticalAlign=top;spacingLeft=4;spacingRight=4;overflow=hidden;rotatable=0;points=[[0,0.5],[1,0.5]];portConstraint=eastwest;whiteSpace=wrap;html=1;comic=0;jiggle=6;backgroundOutline=0;" parent="_RMVuCj_aNO2bqz8egUr-2" vertex="1">
          <mxGeometry y="26" width="200" height="26" as="geometry" />
        </mxCell>
        <mxCell id="_RMVuCj_aNO2bqz8egUr-4" value="date: date" style="text;strokeColor=none;fillColor=none;align=left;verticalAlign=top;spacingLeft=4;spacingRight=4;overflow=hidden;rotatable=0;points=[[0,0.5],[1,0.5]];portConstraint=eastwest;whiteSpace=wrap;html=1;comic=0;jiggle=6;backgroundOutline=0;" parent="_RMVuCj_aNO2bqz8egUr-2" vertex="1">
          <mxGeometry y="52" width="200" height="26" as="geometry" />
        </mxCell>
        <mxCell id="_RMVuCj_aNO2bqz8egUr-5" value="supplyCode: string " style="text;strokeColor=none;fillColor=none;align=left;verticalAlign=top;spacingLeft=4;spacingRight=4;overflow=hidden;rotatable=0;points=[[0,0.5],[1,0.5]];portConstraint=eastwest;whiteSpace=wrap;html=1;comic=0;jiggle=6;backgroundOutline=0;" parent="_RMVuCj_aNO2bqz8egUr-2" vertex="1">
          <mxGeometry y="78" width="200" height="26" as="geometry" />
        </mxCell>
        <mxCell id="_RMVuCj_aNO2bqz8egUr-6" value="quantity: int" style="text;strokeColor=none;fillColor=none;align=left;verticalAlign=top;spacingLeft=4;spacingRight=4;overflow=hidden;rotatable=0;points=[[0,0.5],[1,0.5]];portConstraint=eastwest;whiteSpace=wrap;html=1;comic=0;jiggle=6;backgroundOutline=0;" parent="_RMVuCj_aNO2bqz8egUr-2" vertex="1">
          <mxGeometry y="104" width="200" height="26" as="geometry" />
        </mxCell>
        <mxCell id="_RMVuCj_aNO2bqz8egUr-7" value="quantityUnit: string" style="text;strokeColor=none;fillColor=none;align=left;verticalAlign=top;spacingLeft=4;spacingRight=4;overflow=hidden;rotatable=0;points=[[0,0.5],[1,0.5]];portConstraint=eastwest;whiteSpace=wrap;html=1;comic=0;jiggle=6;backgroundOutline=0;" parent="_RMVuCj_aNO2bqz8egUr-2" vertex="1">
          <mxGeometry y="130" width="200" height="26" as="geometry" />
        </mxCell>
        <mxCell id="_RMVuCj_aNO2bqz8egUr-8" value="unitPrice: float" style="text;strokeColor=none;fillColor=none;align=left;verticalAlign=top;spacingLeft=4;spacingRight=4;overflow=hidden;rotatable=0;points=[[0,0.5],[1,0.5]];portConstraint=eastwest;whiteSpace=wrap;html=1;comic=0;jiggle=6;backgroundOutline=0;" parent="_RMVuCj_aNO2bqz8egUr-2" vertex="1">
          <mxGeometry y="156" width="200" height="26" as="geometry" />
        </mxCell>
        <mxCell id="_RMVuCj_aNO2bqz8egUr-9" value="totalPrice: float" style="text;strokeColor=none;fillColor=none;align=left;verticalAlign=top;spacingLeft=4;spacingRight=4;overflow=hidden;rotatable=0;points=[[0,0.5],[1,0.5]];portConstraint=eastwest;whiteSpace=wrap;html=1;comic=0;jiggle=6;backgroundOutline=0;" parent="_RMVuCj_aNO2bqz8egUr-2" vertex="1">
          <mxGeometry y="182" width="200" height="26" as="geometry" />
        </mxCell>
        <mxCell id="_RMVuCj_aNO2bqz8egUr-10" value="status: string " style="text;strokeColor=none;fillColor=none;align=left;verticalAlign=top;spacingLeft=4;spacingRight=4;overflow=hidden;rotatable=0;points=[[0,0.5],[1,0.5]];portConstraint=eastwest;whiteSpace=wrap;html=1;comic=0;jiggle=6;backgroundOutline=0;" parent="_RMVuCj_aNO2bqz8egUr-2" vertex="1">
          <mxGeometry y="208" width="200" height="26" as="geometry" />
        </mxCell>
        <mxCell id="_RMVuCj_aNO2bqz8egUr-11" value="Work Orders" style="swimlane;fontStyle=0;childLayout=stackLayout;horizontal=1;startSize=26;fillColor=none;horizontalStack=0;resizeParent=1;resizeParentMax=0;resizeLast=0;collapsible=1;marginBottom=0;whiteSpace=wrap;html=1;strokeColor=#66B2FF;comic=0;jiggle=6;backgroundOutline=0;" parent="WIyWlLk6GJQsqaUBKTNV-1" vertex="1">
          <mxGeometry x="340" y="2040" width="200" height="260" as="geometry" />
        </mxCell>
        <mxCell id="_RMVuCj_aNO2bqz8egUr-12" value="orderID: string " style="text;strokeColor=none;fillColor=none;align=left;verticalAlign=top;spacingLeft=4;spacingRight=4;overflow=hidden;rotatable=0;points=[[0,0.5],[1,0.5]];portConstraint=eastwest;whiteSpace=wrap;html=1;comic=0;jiggle=6;backgroundOutline=0;" parent="_RMVuCj_aNO2bqz8egUr-11" vertex="1">
          <mxGeometry y="26" width="200" height="26" as="geometry" />
        </mxCell>
        <mxCell id="_RMVuCj_aNO2bqz8egUr-13" value="date: date" style="text;strokeColor=none;fillColor=none;align=left;verticalAlign=top;spacingLeft=4;spacingRight=4;overflow=hidden;rotatable=0;points=[[0,0.5],[1,0.5]];portConstraint=eastwest;whiteSpace=wrap;html=1;comic=0;jiggle=6;backgroundOutline=0;" parent="_RMVuCj_aNO2bqz8egUr-11" vertex="1">
          <mxGeometry y="52" width="200" height="26" as="geometry" />
        </mxCell>
        <mxCell id="_RMVuCj_aNO2bqz8egUr-14" value="supplyCode: string " style="text;strokeColor=none;fillColor=none;align=left;verticalAlign=top;spacingLeft=4;spacingRight=4;overflow=hidden;rotatable=0;points=[[0,0.5],[1,0.5]];portConstraint=eastwest;whiteSpace=wrap;html=1;comic=0;jiggle=6;backgroundOutline=0;" parent="_RMVuCj_aNO2bqz8egUr-11" vertex="1">
          <mxGeometry y="78" width="200" height="26" as="geometry" />
        </mxCell>
        <mxCell id="_RMVuCj_aNO2bqz8egUr-16" value="description: string" style="text;strokeColor=none;fillColor=none;align=left;verticalAlign=top;spacingLeft=4;spacingRight=4;overflow=hidden;rotatable=0;points=[[0,0.5],[1,0.5]];portConstraint=eastwest;whiteSpace=wrap;html=1;comic=0;jiggle=6;backgroundOutline=0;" parent="_RMVuCj_aNO2bqz8egUr-11" vertex="1">
          <mxGeometry y="104" width="200" height="26" as="geometry" />
        </mxCell>
        <mxCell id="_RMVuCj_aNO2bqz8egUr-17" value="serviceCompanyName: string" style="text;strokeColor=none;fillColor=none;align=left;verticalAlign=top;spacingLeft=4;spacingRight=4;overflow=hidden;rotatable=0;points=[[0,0.5],[1,0.5]];portConstraint=eastwest;whiteSpace=wrap;html=1;comic=0;jiggle=6;backgroundOutline=0;" parent="_RMVuCj_aNO2bqz8egUr-11" vertex="1">
          <mxGeometry y="130" width="200" height="26" as="geometry" />
        </mxCell>
        <mxCell id="_RMVuCj_aNO2bqz8egUr-18" value="serviceTechnicianName: string" style="text;strokeColor=none;fillColor=none;align=left;verticalAlign=top;spacingLeft=4;spacingRight=4;overflow=hidden;rotatable=0;points=[[0,0.5],[1,0.5]];portConstraint=eastwest;whiteSpace=wrap;html=1;comic=0;jiggle=6;backgroundOutline=0;" parent="_RMVuCj_aNO2bqz8egUr-11" vertex="1">
          <mxGeometry y="156" width="200" height="26" as="geometry" />
        </mxCell>
        <mxCell id="_RMVuCj_aNO2bqz8egUr-19" value="contact: string " style="text;strokeColor=none;fillColor=none;align=left;verticalAlign=top;spacingLeft=4;spacingRight=4;overflow=hidden;rotatable=0;points=[[0,0.5],[1,0.5]];portConstraint=eastwest;whiteSpace=wrap;html=1;comic=0;jiggle=6;backgroundOutline=0;" parent="_RMVuCj_aNO2bqz8egUr-11" vertex="1">
          <mxGeometry y="182" width="200" height="26" as="geometry" />
        </mxCell>
        <mxCell id="_RMVuCj_aNO2bqz8egUr-20" value="lastServiceDate: string" style="text;strokeColor=none;fillColor=none;align=left;verticalAlign=top;spacingLeft=4;spacingRight=4;overflow=hidden;rotatable=0;points=[[0,0.5],[1,0.5]];portConstraint=eastwest;whiteSpace=wrap;html=1;comic=0;jiggle=6;backgroundOutline=0;" parent="_RMVuCj_aNO2bqz8egUr-11" vertex="1">
          <mxGeometry y="208" width="200" height="26" as="geometry" />
        </mxCell>
        <mxCell id="_RMVuCj_aNO2bqz8egUr-15" value="status: string " style="text;strokeColor=none;fillColor=none;align=left;verticalAlign=top;spacingLeft=4;spacingRight=4;overflow=hidden;rotatable=0;points=[[0,0.5],[1,0.5]];portConstraint=eastwest;whiteSpace=wrap;html=1;comic=0;jiggle=6;backgroundOutline=0;" parent="_RMVuCj_aNO2bqz8egUr-11" vertex="1">
          <mxGeometry y="234" width="200" height="26" as="geometry" />
        </mxCell>
        <mxCell id="_RMVuCj_aNO2bqz8egUr-21" style="edgeStyle=orthogonalEdgeStyle;rounded=0;orthogonalLoop=1;jettySize=auto;html=1;fillColor=#dae8fc;strokeColor=#6c8ebf;jumpStyle=arc;comic=0;jiggle=6;backgroundOutline=0;endSize=25;startSize=25;jumpSize=10;endArrow=diamondThin;endFill=1;" parent="WIyWlLk6GJQsqaUBKTNV-1" source="_RMVuCj_aNO2bqz8egUr-2" target="iXaf-DERiKh6bUlAR3Fj-0" edge="1">
          <mxGeometry relative="1" as="geometry">
            <Array as="points" />
            <mxPoint x="1406.25" y="1990" as="sourcePoint" />
          </mxGeometry>
        </mxCell>
        <mxCell id="_RMVuCj_aNO2bqz8egUr-22" style="edgeStyle=orthogonalEdgeStyle;rounded=0;orthogonalLoop=1;jettySize=auto;html=1;fillColor=#dae8fc;strokeColor=#6c8ebf;jumpStyle=arc;comic=0;jiggle=6;backgroundOutline=0;endSize=25;startSize=25;jumpSize=10;endArrow=diamondThin;endFill=1;" parent="WIyWlLk6GJQsqaUBKTNV-1" source="_RMVuCj_aNO2bqz8egUr-11" target="iXaf-DERiKh6bUlAR3Fj-0" edge="1">
          <mxGeometry relative="1" as="geometry">
            <Array as="points">
              <mxPoint x="680" y="2210" />
              <mxPoint x="680" y="2210" />
            </Array>
            <mxPoint x="1556.25" y="1830" as="sourcePoint" />
            <mxPoint x="1576.25" y="1810" as="targetPoint" />
          </mxGeometry>
        </mxCell>
        <mxCell id="_RMVuCj_aNO2bqz8egUr-23" style="edgeStyle=orthogonalEdgeStyle;rounded=0;orthogonalLoop=1;jettySize=auto;html=1;fillColor=#dae8fc;strokeColor=#000000;jumpStyle=arc;comic=0;jiggle=6;backgroundOutline=0;endArrow=none;endFill=0;endSize=25;startSize=25;jumpSize=10;" parent="WIyWlLk6GJQsqaUBKTNV-1" source="_RMVuCj_aNO2bqz8egUr-15" target="cIcH_N4xVWaxeV6_vvsU-0" edge="1">
          <mxGeometry relative="1" as="geometry">
            <Array as="points">
              <mxPoint x="370" y="2330" />
              <mxPoint x="220" y="2330" />
              <mxPoint x="220" y="2030" />
              <mxPoint x="-80" y="2030" />
            </Array>
          </mxGeometry>
        </mxCell>
        <mxCell id="_RMVuCj_aNO2bqz8egUr-24" style="edgeStyle=orthogonalEdgeStyle;rounded=0;orthogonalLoop=1;jettySize=auto;html=1;fillColor=#dae8fc;strokeColor=#000000;jumpStyle=arc;comic=0;jiggle=6;backgroundOutline=0;endArrow=none;endFill=0;endSize=25;startSize=25;jumpSize=10;" parent="WIyWlLk6GJQsqaUBKTNV-1" source="_RMVuCj_aNO2bqz8egUr-2" target="cIcH_N4xVWaxeV6_vvsU-0" edge="1">
          <mxGeometry relative="1" as="geometry">
            <Array as="points">
              <mxPoint x="200" y="2350" />
              <mxPoint x="200" y="2050" />
              <mxPoint x="-100" y="2050" />
            </Array>
          </mxGeometry>
        </mxCell>
        <mxCell id="_RMVuCj_aNO2bqz8egUr-26" style="edgeStyle=orthogonalEdgeStyle;rounded=0;orthogonalLoop=1;jettySize=auto;html=1;fillColor=#dae8fc;strokeColor=#6c8ebf;jumpStyle=arc;comic=0;jiggle=6;backgroundOutline=0;endArrow=diamondThin;endFill=1;endSize=25;startSize=25;startArrow=none;startFill=0;jumpSize=10;" parent="WIyWlLk6GJQsqaUBKTNV-1" source="_RMVuCj_aNO2bqz8egUr-11" target="6s5vhWPi2oBte4bEisQO-4" edge="1">
          <mxGeometry relative="1" as="geometry">
            <Array as="points">
              <mxPoint x="240" y="2170" />
            </Array>
          </mxGeometry>
        </mxCell>
        <mxCell id="_RMVuCj_aNO2bqz8egUr-46" style="edgeStyle=orthogonalEdgeStyle;rounded=0;orthogonalLoop=1;jettySize=auto;html=1;startArrow=block;startFill=1;endArrow=none;endFill=0;fillColor=#dae8fc;strokeColor=#66B2FF;jumpStyle=arc;comic=0;jiggle=6;backgroundOutline=0;endSize=25;startSize=25;jumpSize=10;" parent="WIyWlLk6GJQsqaUBKTNV-1" source="_RMVuCj_aNO2bqz8egUr-32" target="6s5vhWPi2oBte4bEisQO-0" edge="1">
          <mxGeometry relative="1" as="geometry">
            <Array as="points">
              <mxPoint x="200" y="1020" />
              <mxPoint x="-130" y="1020" />
            </Array>
          </mxGeometry>
        </mxCell>
        <mxCell id="_RMVuCj_aNO2bqz8egUr-47" value="Inheritance" style="edgeLabel;html=1;align=center;verticalAlign=middle;resizable=0;points=[];comic=0;jiggle=6;backgroundOutline=0;" parent="_RMVuCj_aNO2bqz8egUr-46" vertex="1" connectable="0">
          <mxGeometry x="0.0675" y="3" relative="1" as="geometry">
            <mxPoint as="offset" />
          </mxGeometry>
        </mxCell>
        <mxCell id="_RMVuCj_aNO2bqz8egUr-32" value="Person" style="swimlane;fontStyle=0;childLayout=stackLayout;horizontal=1;startSize=26;fillColor=none;horizontalStack=0;resizeParent=1;resizeParentMax=0;resizeLast=0;collapsible=1;marginBottom=0;whiteSpace=wrap;html=1;comic=0;jiggle=6;backgroundOutline=0;strokeColor=#66B2FF;" parent="WIyWlLk6GJQsqaUBKTNV-1" vertex="1">
          <mxGeometry x="150" y="790" width="195" height="182" as="geometry" />
        </mxCell>
        <mxCell id="_RMVuCj_aNO2bqz8egUr-33" value="personID: string " style="text;strokeColor=none;fillColor=none;align=left;verticalAlign=top;spacingLeft=4;spacingRight=4;overflow=hidden;rotatable=0;points=[[0,0.5],[1,0.5]];portConstraint=eastwest;whiteSpace=wrap;html=1;comic=0;jiggle=6;backgroundOutline=0;" parent="_RMVuCj_aNO2bqz8egUr-32" vertex="1">
          <mxGeometry y="26" width="195" height="26" as="geometry" />
        </mxCell>
        <mxCell id="_RMVuCj_aNO2bqz8egUr-44" value="&lt;font color=&quot;#66b2ff&quot;&gt;lastName: string&lt;/font&gt;" style="text;align=left;verticalAlign=top;spacingLeft=4;spacingRight=4;overflow=hidden;rotatable=0;points=[[0,0.5],[1,0.5]];portConstraint=eastwest;whiteSpace=wrap;html=1;comic=0;jiggle=6;backgroundOutline=0;" parent="_RMVuCj_aNO2bqz8egUr-32" vertex="1">
          <mxGeometry y="52" width="195" height="26" as="geometry" />
        </mxCell>
        <mxCell id="_RMVuCj_aNO2bqz8egUr-45" value="&lt;font color=&quot;#3399ff&quot;&gt;firstName: string&lt;/font&gt;" style="text;strokeColor=none;fillColor=none;align=left;verticalAlign=top;spacingLeft=4;spacingRight=4;overflow=hidden;rotatable=0;points=[[0,0.5],[1,0.5]];portConstraint=eastwest;whiteSpace=wrap;html=1;comic=0;jiggle=6;backgroundOutline=0;" parent="_RMVuCj_aNO2bqz8egUr-32" vertex="1">
          <mxGeometry y="78" width="195" height="26" as="geometry" />
        </mxCell>
        <mxCell id="_RMVuCj_aNO2bqz8egUr-35" value="homeAddress: string " style="text;strokeColor=none;fillColor=none;align=left;verticalAlign=top;spacingLeft=4;spacingRight=4;overflow=hidden;rotatable=0;points=[[0,0.5],[1,0.5]];portConstraint=eastwest;whiteSpace=wrap;html=1;comic=0;jiggle=6;backgroundOutline=0;" parent="_RMVuCj_aNO2bqz8egUr-32" vertex="1">
          <mxGeometry y="104" width="195" height="26" as="geometry" />
        </mxCell>
        <mxCell id="_RMVuCj_aNO2bqz8egUr-36" value="DOB: date" style="text;strokeColor=none;fillColor=none;align=left;verticalAlign=top;spacingLeft=4;spacingRight=4;overflow=hidden;rotatable=0;points=[[0,0.5],[1,0.5]];portConstraint=eastwest;whiteSpace=wrap;html=1;comic=0;jiggle=6;backgroundOutline=0;" parent="_RMVuCj_aNO2bqz8egUr-32" vertex="1">
          <mxGeometry y="130" width="195" height="26" as="geometry" />
        </mxCell>
        <mxCell id="_RMVuCj_aNO2bqz8egUr-37" value="SSN: string" style="text;strokeColor=none;fillColor=none;align=left;verticalAlign=top;spacingLeft=4;spacingRight=4;overflow=hidden;rotatable=0;points=[[0,0.5],[1,0.5]];portConstraint=eastwest;whiteSpace=wrap;html=1;comic=0;jiggle=6;backgroundOutline=0;" parent="_RMVuCj_aNO2bqz8egUr-32" vertex="1">
          <mxGeometry y="156" width="195" height="26" as="geometry" />
        </mxCell>
        <mxCell id="_RMVuCj_aNO2bqz8egUr-48" style="edgeStyle=orthogonalEdgeStyle;rounded=0;orthogonalLoop=1;jettySize=auto;html=1;endArrow=none;endFill=0;startArrow=block;startFill=1;fillColor=#dae8fc;strokeColor=#66B2FF;jumpStyle=arc;comic=0;jiggle=6;backgroundOutline=0;endSize=25;startSize=25;jumpSize=10;" parent="WIyWlLk6GJQsqaUBKTNV-1" source="_RMVuCj_aNO2bqz8egUr-32" target="6s5vhWPi2oBte4bEisQO-77" edge="1">
          <mxGeometry relative="1" as="geometry">
            <mxPoint x="-110" y="1751" as="sourcePoint" />
            <mxPoint x="31" y="1693" as="targetPoint" />
            <Array as="points">
              <mxPoint x="250" y="1040" />
              <mxPoint x="40" y="1040" />
            </Array>
          </mxGeometry>
        </mxCell>
        <mxCell id="_RMVuCj_aNO2bqz8egUr-49" value="Inheritance" style="edgeLabel;html=1;align=center;verticalAlign=middle;resizable=0;points=[];comic=0;jiggle=6;backgroundOutline=0;" parent="_RMVuCj_aNO2bqz8egUr-48" vertex="1" connectable="0">
          <mxGeometry x="0.0675" y="3" relative="1" as="geometry">
            <mxPoint x="-13" y="-1" as="offset" />
          </mxGeometry>
        </mxCell>
        <mxCell id="_RMVuCj_aNO2bqz8egUr-50" style="edgeStyle=orthogonalEdgeStyle;rounded=0;orthogonalLoop=1;jettySize=auto;html=1;fillColor=#dae8fc;strokeColor=#6c8ebf;jumpStyle=arc;comic=0;jiggle=6;backgroundOutline=0;endArrow=diamondThin;endFill=0;strokeWidth=1;endSize=25;startSize=25;startArrow=none;startFill=0;jumpSize=10;" parent="WIyWlLk6GJQsqaUBKTNV-1" source="_RMVuCj_aNO2bqz8egUr-32" target="6s5vhWPi2oBte4bEisQO-4" edge="1">
          <mxGeometry relative="1" as="geometry">
            <Array as="points">
              <mxPoint x="310" y="1538" />
            </Array>
            <mxPoint x="258" y="780" as="sourcePoint" />
          </mxGeometry>
        </mxCell>
        <mxCell id="_RMVuCj_aNO2bqz8egUr-52" value="Procedure Requirement" style="swimlane;fontStyle=0;childLayout=stackLayout;horizontal=1;startSize=26;fillColor=none;horizontalStack=0;resizeParent=1;resizeParentMax=0;resizeLast=0;collapsible=1;marginBottom=0;whiteSpace=wrap;html=1;strokeColor=#66B2FF;comic=0;jiggle=6;backgroundOutline=0;" parent="WIyWlLk6GJQsqaUBKTNV-1" vertex="1">
          <mxGeometry x="910" y="1140" width="200" height="104" as="geometry" />
        </mxCell>
        <mxCell id="_RMVuCj_aNO2bqz8egUr-59" value="requirementID: string " style="text;strokeColor=none;fillColor=none;align=left;verticalAlign=top;spacingLeft=4;spacingRight=4;overflow=hidden;rotatable=0;points=[[0,0.5],[1,0.5]];portConstraint=eastwest;whiteSpace=wrap;html=1;comic=0;jiggle=6;backgroundOutline=0;" parent="_RMVuCj_aNO2bqz8egUr-52" vertex="1">
          <mxGeometry y="26" width="200" height="26" as="geometry" />
        </mxCell>
        <mxCell id="_RMVuCj_aNO2bqz8egUr-61" value="procedureCode: string " style="text;strokeColor=none;fillColor=none;align=left;verticalAlign=top;spacingLeft=4;spacingRight=4;overflow=hidden;rotatable=0;points=[[0,0.5],[1,0.5]];portConstraint=eastwest;whiteSpace=wrap;html=1;comic=0;jiggle=6;backgroundOutline=0;" parent="_RMVuCj_aNO2bqz8egUr-52" vertex="1">
          <mxGeometry y="52" width="200" height="26" as="geometry" />
        </mxCell>
        <mxCell id="_RMVuCj_aNO2bqz8egUr-56" value="quantity: int" style="text;strokeColor=none;fillColor=none;align=left;verticalAlign=top;spacingLeft=4;spacingRight=4;overflow=hidden;rotatable=0;points=[[0,0.5],[1,0.5]];portConstraint=eastwest;whiteSpace=wrap;html=1;comic=0;jiggle=6;backgroundOutline=0;" parent="_RMVuCj_aNO2bqz8egUr-52" vertex="1">
          <mxGeometry y="78" width="200" height="26" as="geometry" />
        </mxCell>
        <mxCell id="_RMVuCj_aNO2bqz8egUr-65" style="edgeStyle=orthogonalEdgeStyle;rounded=0;orthogonalLoop=1;jettySize=auto;html=1;endArrow=block;endFill=1;fillColor=#dae8fc;strokeColor=#66B2FF;jumpStyle=arc;comic=0;jiggle=6;backgroundOutline=0;endSize=25;startSize=25;jumpSize=10;" parent="WIyWlLk6GJQsqaUBKTNV-1" source="6s5vhWPi2oBte4bEisQO-31" target="_RMVuCj_aNO2bqz8egUr-52" edge="1">
          <mxGeometry relative="1" as="geometry">
            <mxPoint x="1341" y="1280" as="sourcePoint" />
            <mxPoint x="1430" y="1280" as="targetPoint" />
            <Array as="points">
              <mxPoint x="890" y="1340" />
              <mxPoint x="1020" y="1340" />
            </Array>
          </mxGeometry>
        </mxCell>
        <mxCell id="_RMVuCj_aNO2bqz8egUr-66" value="Inheritance" style="edgeLabel;html=1;align=center;verticalAlign=middle;resizable=0;points=[];comic=0;jiggle=6;backgroundOutline=0;" parent="_RMVuCj_aNO2bqz8egUr-65" vertex="1" connectable="0">
          <mxGeometry x="-0.0278" relative="1" as="geometry">
            <mxPoint x="-37" y="-10" as="offset" />
          </mxGeometry>
        </mxCell>
        <mxCell id="a_AbMnidcUv3Xf0sOISM-4" style="edgeStyle=orthogonalEdgeStyle;rounded=0;orthogonalLoop=1;jettySize=auto;html=1;endSize=25;startSize=25;startArrow=none;startFill=0;endArrow=diamondThin;endFill=1;jumpStyle=arc;jumpSize=10;" parent="WIyWlLk6GJQsqaUBKTNV-1" source="6s5vhWPi2oBte4bEisQO-40" target="6s5vhWPi2oBte4bEisQO-54" edge="1">
          <mxGeometry relative="1" as="geometry">
            <Array as="points">
              <mxPoint x="600" y="1645" />
              <mxPoint x="600" y="1720" />
            </Array>
          </mxGeometry>
        </mxCell>
        <mxCell id="OsplQfHJkV01C1cwUfgm-7" style="edgeStyle=orthogonalEdgeStyle;rounded=0;orthogonalLoop=1;jettySize=auto;html=1;fillColor=#dae8fc;strokeColor=#000000;jumpStyle=arc;comic=0;jiggle=6;backgroundOutline=0;endArrow=none;endFill=0;endSize=25;startSize=25;jumpSize=10;" parent="WIyWlLk6GJQsqaUBKTNV-1" source="6s5vhWPi2oBte4bEisQO-77" target="cIcH_N4xVWaxeV6_vvsU-0" edge="1">
          <mxGeometry relative="1" as="geometry">
            <Array as="points">
              <mxPoint x="-60" y="1840" />
            </Array>
            <mxPoint x="-20" y="2020" as="sourcePoint" />
            <mxPoint x="-70" y="1756" as="targetPoint" />
          </mxGeometry>
        </mxCell>
      </root>
    </mxGraphModel>
  </diagram>
</mxfile>
